# Made in Blockbench 5.0.4
mtllib Walls.mtl

o cylinder
v 0 0 0
v 0.390625 0 -0.161801875
v 0.390625 0.78125 -0.161801875
v 0.161801875 0 -0.390625
v 0.161801875 0.78125 -0.390625
v -0.161801875 0 -0.390625
v -0.161801875 0.78125 -0.390625
v -0.390625 0 -0.161801875
v -0.390625 0.78125 -0.161801875
v -0.390625 0 0.161801875
v -0.390625 0.78125 0.161801875
v -0.161801875 0 0.390625
v 0.161801875 0 0.390625
v 0.390625 0 0.161801875
v 0.390625 0.78125 0.161801875
v 0.161801875 0.78125 0.390625
v -0.161801875 0.78125 0.390625
v -0.29296875 0.78125 -0.121351875
v -0.29296875 0.78125 0.121351875
v -0.121351875 0.78125 0.29296875
v 0.121351875 0.78125 0.29296875
v 0.29296875 0.78125 0.121351875
v 0.29296875 0.78125 -0.121351875
v 0.121351875 0.78125 -0.29296875
v -0.121351875 0.78125 -0.29296875
v -0.29296875 2.3125 -0.121351875
v -0.121351875 2.3125 0.29296875
v 0.121351875 2.3125 0.29296875
v 0.29296875 2.3125 0.121351875
v 0.29296875 2.3125 -0.121351875
v 0.121351875 2.3125 -0.29296875
v -0.121351875 2.3125 -0.29296875
v -0.29296875 2.3125 0.121351875
vt 0.1420125 0.796875
vt 0.19921875 0.85408125
vt 0.1015625 0.89453125
vt 0 0.171875
vt 0.078125 0.171875
vt 0.078125 0.375
vt 0 0.375
vt 0.0611125 0.796875
vt 0.1420125 0.796875
vt 0.1015625 0.89453125
vt 0.515625 0.390625
vt 0.59375 0.390625
vt 0.59375 0.59375
vt 0.515625 0.59375
vt 0.00390625 0.85408125
vt 0.0611125 0.796875
vt 0.1015625 0.89453125
vt 0.515625 0.171875
vt 0.59375 0.171875
vt 0.59375 0.375
vt 0.515625 0.375
vt 0.00390625 0.93498125
vt 0.00390625 0.85408125
vt 0.1015625 0.89453125
vt 0.59375 0.796875
vt 0.671875 0.796875
vt 0.671875 1
vt 0.59375 1
vt 0.0611125 0.9921875
vt 0.00390625 0.93498125
vt 0.1015625 0.89453125
vt 0.1420125 0.9921875
vt 0.0611125 0.9921875
vt 0.1015625 0.89453125
vt 0.19921875 0.93498125
vt 0.1420125 0.9921875
vt 0.1015625 0.89453125
vt 0.19921875 0.85408125
vt 0.19921875 0.93498125
vt 0.1015625 0.89453125
vt 0.609375 0.578125
vt 0.6875 0.578125
vt 0.6875 0.78125
vt 0.609375 0.78125
vt 0.609375 0.140625
vt 0.6875 0.140625
vt 0.6875 0.34375
vt 0.609375 0.34375
vt 0.609375 0.359375
vt 0.6875 0.359375
vt 0.6875 0.5625
vt 0.609375 0.5625
vt 0.6875 0.796875
vt 0.765625 0.796875
vt 0.765625 1
vt 0.6875 1
vt 0.2001953125 0.68450625
vt 0.2001953125 0.74518125
vt 0.17578125 0.75529375
vt 0.17578125 0.67439375
vt 0.2431 0.6416015625
vt 0.2001953125 0.68450625
vt 0.17578125 0.67439375
vt 0.2329875 0.6171875
vt 0.303775 0.6416015625
vt 0.2431 0.6416015625
vt 0.2329875 0.6171875
vt 0.3138875 0.6171875
vt 0.3466796875 0.68450625
vt 0.303775 0.6416015625
vt 0.3138875 0.6171875
vt 0.37109375 0.67439375
vt 0.3466796875 0.74518125
vt 0.3466796875 0.68450625
vt 0.37109375 0.67439375
vt 0.37109375 0.75529375
vt 0.303775 0.7880859375
vt 0.3466796875 0.74518125
vt 0.37109375 0.75529375
vt 0.3138875 0.8125
vt 0.2431 0.7880859375
vt 0.303775 0.7880859375
vt 0.3138875 0.8125
vt 0.2329875 0.8125
vt 0.2001953125 0.74518125
vt 0.2431 0.7880859375
vt 0.2329875 0.8125
vt 0.17578125 0.75529375
vt 0.0625 0.78125
vt 0 0.78125
vt 0 0.390625
vt 0.0625 0.390625
vt 0.296875 0.59375
vt 0.234375 0.59375
vt 0.234375 0.203125
vt 0.296875 0.203125
vt 0.140625 0.78125
vt 0.078125 0.78125
vt 0.078125 0.390625
vt 0.140625 0.390625
vt 0.5 1
vt 0.4375 1
vt 0.4375 0.609375
vt 0.5 0.609375
vt 0.421875 0.625
vt 0.359375 0.625
vt 0.359375 0.234375
vt 0.421875 0.234375
vt 0.5 0.59375
vt 0.4375 0.59375
vt 0.4375 0.203125
vt 0.5 0.203125
vt 0.21875 0.59375
vt 0.15625 0.59375
vt 0.15625 0.203125
vt 0.21875 0.203125
vt 0.578125 1
vt 0.515625 1
vt 0.515625 0.609375
vt 0.578125 0.609375
vn 0 -1 0
vn 0.7071067811865476 0 -0.7071067811865476
vn 0 -1 0
vn 0 0 -1
vn 0 -1 0
vn -0.7071067811865476 0 -0.7071067811865476
vn 0 -1 0
vn -1 0 0
vn 0 -1 0
vn 0 -1 0
vn 0 -1 0
vn 0 -1 0
vn 1 0 0
vn 0.7071067811865476 0 0.7071067811865476
vn 0 0 1
vn -0.7071067811865476 0 0.7071067811865476
vn 0 1 0
vn 0 1 0
vn 0 1 0
vn 0 1 0
vn 0 1 0
vn 0 1 0
vn 0 1 0
vn 0 1 0
vn -1 0 0
vn -0.7071067811865476 0 0.7071067811865476
vn 0 0 1
vn 0.7071067811865476 0 0.7071067811865476
vn 1 0 0
vn 0.7071067811865476 0 -0.7071067811865476
vn 0 0 -1
vn -0.7071067811865476 0 -0.7071067811865476
usemtl m_68cedb16-dc47-8d8a-2b86-670aef15e9d1
f 4/1/1 2/2/1 1/3/1
f 2/4/2 4/5/2 5/6/2 3/7/2
f 6/8/3 4/9/3 1/10/3
f 4/11/4 6/12/4 7/13/4 5/14/4
f 8/15/5 6/16/5 1/17/5
f 6/18/6 8/19/6 9/20/6 7/21/6
f 10/22/7 8/23/7 1/24/7
f 8/25/8 10/26/8 11/27/8 9/28/8
f 12/29/9 10/30/9 1/31/9
f 13/32/10 12/33/10 1/34/10
f 14/35/11 13/36/11 1/37/11
f 2/38/12 14/39/12 1/40/12
f 14/41/13 2/42/13 3/43/13 15/44/13
f 13/45/14 14/46/14 15/47/14 16/48/14
f 12/49/15 13/50/15 16/51/15 17/52/15
f 10/53/16 12/54/16 17/55/16 11/56/16
f 19/57/17 18/58/17 9/59/17 11/60/17
f 20/61/18 19/62/18 11/63/18 17/64/18
f 21/65/19 20/66/19 17/67/19 16/68/19
f 22/69/20 21/70/20 16/71/20 15/72/20
f 23/73/21 22/74/21 15/75/21 3/76/21
f 24/77/22 23/78/22 3/79/22 5/80/22
f 25/81/23 24/82/23 5/83/23 7/84/23
f 18/85/24 25/86/24 7/87/24 9/88/24
f 33/89/25 26/90/25 18/91/25 19/92/25
f 27/93/26 33/94/26 19/95/26 20/96/26
f 28/97/27 27/98/27 20/99/27 21/100/27
f 29/101/28 28/102/28 21/103/28 22/104/28
f 30/105/29 29/106/29 22/107/29 23/108/29
f 31/109/30 30/110/30 23/111/30 24/112/30
f 32/113/31 31/114/31 24/115/31 25/116/31
f 26/117/32 32/118/32 25/119/32 18/120/32