# Made in Blockbench 5.0.4
mtllib Floor.mtl

o Floor
v 8 0.109375 8
v 8 0.203125 -8
v -8 0.125 8
v -8 1.296875 -8
v 8 0.109375 5.333333125
v -8 0.34375 5.333333125
v 8 0.703125 2.666666875
v -8 0.421875 2.666666875
v 8 0.703125 0
v -8 0.203125 0
v 8 0.203125 -2.666666875
v -8 0.203125 -2.666666875
v 8 0.203125 -5.333333125
v -8 1.296875 -5.333333125
v 5.333333125 0.703125 2.666666875
v 5.333333125 0.109375 5.333333125
v 2.666666875 0.03125 2.666666875
v 2.666666875 0.4375 5.333333125
v 0 0.03125 2.666666875
v 0 0.4375 5.333333125
v -2.666666875 0.203125 2.666666875
v -2.666666875 0.40625 5.333333125
v -5.333333125 0.421875 2.666666875
v -5.333333125 0.546875 5.333333125
v 5.333333125 0.109375 8
v 2.666666875 0.4375 8
v 0 0.4375 8
v -2.666666875 0.40625 8
v -5.333333125 0.328125 8
v 5.333333125 0.703125 0
v 2.666666875 0.03125 0
v 0 0.03125 0
v -2.666666875 1.015625 0
v -5.333333125 1.015625 0
v 5.333333125 0.203125 -2.666666875
v 2.666666875 0.203125 -2.666666875
v 0 0.53125 -2.666666875
v -2.666666875 1.34375 -2.666666875
v -5.333333125 1.015625 -2.666666875
v 5.333333125 0.609375 -5.333333125
v 2.666666875 0.609375 -5.333333125
v 0 0.53125 -5.333333125
v -2.666666875 0.53125 -5.333333125
v -5.333333125 1.296875 -5.333333125
v 5.333333125 0.609375 -8
v 2.666666875 0.609375 -8
v 0 0.203125 -8
v -2.666666875 0.203125 -8
v -5.333333125 1.296875 -8
vt 0.01556458984375 0.90990607421875
vt 0.09889798828125 0.90990607421875
vt 0.09889798828125 0.99323947265625
vt 0.01556458984375 0.99323947265625
vt 0.00072998046875 0.49376189453124997
vt 0.08424072265625 0.490494921875
vt 0.08802802734375 0.5740224609375
vt 0.00451728515625 0.5772894140625
vt 0.00451728515625 0.5772894140625
vt 0.08802802734375 0.5740224609375
vt 0.09099279296875 0.6573945117187501
vt 0.00795205078125 0.6603474609375
vt 0.00795205078125 0.6603474609375
vt 0.09123279296875 0.6573859765625
vt 0.09426681640625 0.74270607421875
vt 0.0107899609375 0.740152890625
vt 0.0107899609375 0.740152890625
vt 0.09786486328125 0.7428161132812501
vt 0.09531724609375 0.82611056640625
vt 0.00824234375 0.82344732421875
vt 0.00824234375 0.82344732421875
vt 0.09531734375 0.82611056640625
vt 0.0953170703125 0.90990607421875
vt 0.01556458984375 0.90990607421875
vt 0.53248068359375 0.66180216796875
vt 0.4492412109375 0.665757578125
vt 0.4451889453125 0.580479765625
vt 0.52842841796875 0.57652435546875
vt 0.4492412109375 0.665757578125
vt 0.36330720703125 0.6649619921875001
vt 0.36718861328125 0.5807566015625
vt 0.44544697265625 0.58590986328125
vt 0.36330720703125 0.6649619921875001
vt 0.2800621875 0.66112486328125
vt 0.28394359375 0.5769193359375
vt 0.36718861328125 0.5807564843749999
vt 0.25783126953125 0.648090234375
vt 0.174451484375 0.652684140625
vt 0.16944634765625 0.5692593945312501
vt 0.25239216796875 0.5642086914062501
vt 0.63998390625 0.89027677734375
vt 0.56968595703125 0.935546875
vt 0.5242496484375 0.8655809960937499
vt 0.594318046875 0.8203233203125
vt 0.50279669921875 0.54896111328125
vt 0.41961736328125 0.55402603515625
vt 0.414552421875 0.47084671874999995
vt 0.4977317578125 0.46578177734375004
vt 0.41961736328125 0.55402603515625
vt 0.3358106640625 0.5591291796875
vt 0.33074572265625 0.47594984375000005
vt 0.414552421875 0.47084671874999995
vt 0.3358106640625 0.5591291796875
vt 0.252631328125 0.56419412109375
vt 0.24756638671875 0.48101478515624996
vt 0.33074572265625 0.47594984375000005
vt 0.252631328125 0.56419412109375
vt 0.16944634765625 0.5692593945312501
vt 0.16438140625 0.48608005859375003
vt 0.24756638671875 0.48101478515624996
vt 0.594318046875 0.8203233203125
vt 0.5242198046875 0.8656002734375
vt 0.47915671875 0.7951694140625
vt 0.549254765625 0.7505561328125
vt 0.52856162109375 0.75600119140625
vt 0.44531662109375 0.7521640625
vt 0.44915375 0.6689190429687499
vt 0.53239875 0.6727561718749999
vt 0.44531662109375 0.7521640625
vt 0.359470078125 0.74820701171875
vt 0.36330720703125 0.6649619921875001
vt 0.44915375 0.6689190429687499
vt 0.359470078125 0.74820701171875
vt 0.27622505859375 0.74436986328125
vt 0.2800621875 0.66112486328125
vt 0.36330720703125 0.6649619921875001
vt 0.26554904296875 0.7276438671875001
vt 0.1775473828125 0.7397445703125001
vt 0.174451484375 0.652684140625
vt 0.25463419921875 0.6482663867187499
vt 0.1775473828125 0.7397445703125001
vt 0.09426681640625 0.74270607421875
vt 0.09123279296875 0.6573859765625
vt 0.17446056640625 0.6529398828124999
vt 0.58704033203125 0.52603677734375
vt 0.58666869140625 0.44270421875
vt 0.6714533984375 0.44232609375
vt 0.6718250390625 0.525658671875
vt 0.44286412109375 0.8342831054687501
vt 0.359568046875 0.83179544921875
vt 0.362060859375 0.7483264257812501
vt 0.44531662109375 0.7521640625
vt 0.35625970703125 0.83104271484375
vt 0.2723210546875 0.8290655078125
vt 0.27622505859375 0.74436986328125
vt 0.3588678125 0.74817923828125
vt 0.2723210546875 0.8290655078125
vt 0.18520798828125 0.82974271484375
vt 0.187544140625 0.7458134765625
vt 0.27621798828125 0.7445234765625
vt 0.18520798828125 0.82974271484375
vt 0.10132333984375 0.82614568359375
vt 0.1048934765625 0.7428887890625
vt 0.1875269140625 0.7464321875
vt 0.504662578125 0.52734375
vt 0.502374765625 0.44308017578125003
vt 0.58666869140625 0.44270421875
vt 0.58703619140625 0.52510748046875
vt 0.502374765625 0.44308017578125003
vt 0.5020030859375 0.3597478125
vt 0.58629697265625 0.3593718359375
vt 0.58666865234375 0.44270421875
vt 0.5020030859375 0.3597478125
vt 0.5020030859375 0.276378671875
vt 0.5853362890625 0.276378671875
vt 0.5853362890625 0.3593761328125
vt 0.27998943359375 0.90841103515625
vt 0.1970425 0.91642748046875
vt 0.1886622265625 0.829715859375
vt 0.2723210546875 0.8290655078125
vt 0.18559783203125 0.90990607421875
vt 0.09889798828125 0.90990607421875
vt 0.10132333984375 0.82614568359375
vt 0.17859115234375 0.829458984375
vt 0.53833251953125 0.963141640625
vt 0.45459205078125 0.9727922265625
vt 0.4450515234375 0.8900067578124999
vt 0.5287919921875 0.880356171875
vt 0.45459205078125 0.9727922265625
vt 0.37180677734375 0.982332734375
vt 0.36226625 0.899547265625
vt 0.4450515234375 0.8900067578124999
vt 0.37180677734375 0.982332734375
vt 0.288066328125 0.9919835546875
vt 0.27998943359375 0.90841103515625
vt 0.36233607421875 0.90015310546875
vt 0.288066328125 0.9919835546875
vt 0.20511939453125 1
vt 0.1970425 0.91642748046875
vt 0.27998943359375 0.90841103515625
vt 0.18896830078125 0.99323947265625
vt 0.09889798828125 0.99323947265625
vt 0.09889798828125 0.90990607421875
vt 0.18507728515625 0.90990607421875
vn 0 1 0
vn -0.07569904282049937 0.9937926397963432 0.08152204611438395
vn -0.07586901942436627 0.9960241276932388 -0.0466886382807203
vn 0 0.9760972654825198 0.2173341397883626
vn -0.29145896161776175 0.9565833333759773 0
vn -0.289986850082705 0.9517517874475576 0.10038008701674818
vn 0 0.9760972546766334 0.2173341883200611
vn -0.24169472790163712 0.9592843515508525 -0.1461409982661062
vn 0 0.9885938485185252 -0.15060611764244997
vn 0.06413463693434722 0.9950586871445835 -0.07579549777788784
vn 0.08166757413356046 0.9955664624518339 -0.04666718521917739
vn 0 1 0
vn 0.12212584194937073 0.992514623936674 0
vn 0 1 0
vn -0.01171794450482504 0.999931342531367 0
vn 0.05248540463675812 0.9952786287106588 0.08164394363298812
vn 0 1 0
vn -0.2443177795298799 0.9696952215029159 0
vn 0 1 0
vn 0.33296480835748965 0.9019999745906193 0.2748280957871343
vn 0 0.9760972654825198 0.21733413978836263
vn 0 0.9828721895421783 -0.18428852114161767
vn 0 0.9979293468723335 0.06431965991015744
vn 0.12006447838876297 0.9757621863115203 0.18295539564001978
vn 0.2894607112822519 0.9500249727880862 0.11689759494090946
vn -0.12212584194937073 0.992514623936674 0
vn 0.148926562299072 0.9775693058229148 0.1489265972037405
vn 0 0.9885938485185252 0.15060611764244994
vn -0.029284307947109366 0.9995711226861543 0
vn 0 0.9565833143306243 -0.2914590241255846
vn 0.2745535294691569 0.9562679260131017 0.10085639858050663
vn 0.15060608314478696 0.9885938537740286 0
vn 0 1 0
vn -0.1495040311253908 0.9813598707225811 -0.1207532559089695
vn 0 0.9925146274061449 -0.1221258137530363
vn 0.379477087319378 0.9252011349969266 0
usemtl m_955deb52-4211-df7b-604d-cfe1da229ef0
f 14/1/1 44/2/1 49/3/1 4/4/1
f 3/5/2 29/6/2 24/7/2 6/8/2
f 6/9/3 24/10/3 23/11/3 8/12/3
f 8/13/4 23/14/4 34/15/4 10/16/4
f 10/17/5 34/18/5 39/19/5 12/20/5
f 12/21/6 39/22/6 44/23/6 14/24/6
f 7/25/7 15/26/7 16/27/7 5/28/7
f 15/29/8 17/30/8 18/31/8 16/32/8
f 17/33/9 19/34/9 20/35/9 18/36/9
f 19/37/10 21/38/10 22/39/10 20/40/10
f 21/41/11 23/42/11 24/43/11 22/44/11
f 5/45/12 16/46/12 25/47/12 1/48/12
f 16/49/13 18/50/13 26/51/13 25/52/13
f 18/53/14 20/54/14 27/55/14 26/56/14
f 20/57/15 22/58/15 28/59/15 27/60/15
f 22/61/16 24/62/16 29/63/16 28/64/16
f 9/65/17 30/66/17 15/67/17 7/68/17
f 30/69/18 31/70/18 17/71/18 15/72/18
f 31/73/19 32/74/19 19/75/19 17/76/19
f 32/77/20 33/78/20 21/79/20 19/80/20
f 33/81/21 34/82/21 23/83/21 21/84/21
f 11/85/22 35/86/22 30/87/22 9/88/22
f 35/89/23 36/90/23 31/91/23 30/92/23
f 36/93/24 37/94/24 32/95/24 31/96/24
f 37/97/25 38/98/25 33/99/25 32/100/25
f 38/101/26 39/102/26 34/103/26 33/104/26
f 13/105/27 40/106/27 35/107/27 11/108/27
f 40/109/28 41/110/28 36/111/28 35/112/28
f 41/113/29 42/114/29 37/115/29 36/116/29
f 42/117/30 43/118/30 38/119/30 37/120/30
f 43/121/31 44/122/31 39/123/31 38/124/31
f 2/125/32 45/126/32 40/127/32 13/128/32
f 45/129/33 46/130/33 41/131/33 40/132/33
f 46/133/34 47/134/34 42/135/34 41/136/34
f 47/137/35 48/138/35 43/139/35 42/140/35
f 48/141/36 49/142/36 44/143/36 43/144/36