# Made in Blockbench 5.0.4
mtllib Vases.mtl

o Vase2
v 0 0 0
v 0.060196875 0 0.125
v 0.060196875 0.015625 0.125
v 0.13526125 0 0.0308725
v 0.13526125 0.015625 0.0308725
v 0.108470625 0 -0.0865025
v 0.108470625 0.015625 -0.0865025
v 0 0 -0.138739375
v 0 0.015625 -0.138739375
v -0.108470625 0 -0.0865025
v -0.108470625 0.015625 -0.0865025
v -0.13526125 0 0.0308725
v -0.13526125 0.015625 0.0308725
v -0.060196875 0 0.125
v -0.060196875 0.015625 0.125
v -0.074104375 0.078125 0.15625
v 0.074104375 0.078125 0.15625
v 0.16651125 0.078125 0.03981625
v 0.13353125 0.078125 -0.10537375
v 0 0.078125 -0.169989375
v -0.13353125 0.078125 -0.10537375
v -0.16651125 0.078125 0.03981625
v -0.074104375 0.140625 0.15625
v 0.074104375 0.140625 0.15625
v 0.16651125 0.140625 0.03981625
v 0.13353125 0.140625 -0.10537375
v 0 0.140625 -0.169989375
v -0.13353125 0.140625 -0.10537375
v -0.16651125 0.140625 0.03981625
v -0.074104375 0.390625 0.15625
v 0.074104375 0.390625 0.15625
v 0.16651125 0.390625 0.03981625
v 0.13353125 0.390625 -0.10537375
v 0 0.390625 -0.169989375
v -0.13353125 0.390625 -0.10537375
v -0.16651125 0.390625 0.03981625
v -0.060196875 0.453125 0.125
v 0.060196875 0.453125 0.125
v 0.13526125 0.453125 0.0308725
v 0.108470625 0.453125 -0.0865025
v 0 0.453125 -0.138739375
v -0.108470625 0.453125 -0.0865025
v -0.13526125 0.453125 0.0308725
v -0.060196875 0.515625 0.125
v 0.060196875 0.515625 0.125
v 0.13526125 0.515625 0.0308725
v 0.108470625 0.515625 -0.0865025
v 0 0.515625 -0.138739375
v -0.108470625 0.515625 -0.0865025
v -0.13526125 0.515625 0.0308725
v -0.067150625 0.53125 0.140625
v 0.067150625 0.53125 0.140625
v 0.15088625 0.53125 0.035344375
v 0.12100125 0.53125 -0.095938125
v 0 0.53125 -0.154364375
v -0.12100125 0.53125 -0.095938125
v -0.15088625 0.53125 0.035344375
v 0.050363125 0.53125 0.1056725
v 0.113164375 0.53125 0.026711875
v 0.090750625 0.53125 -0.07175
v 0 0.53125 -0.11557
v -0.090750625 0.53125 -0.07175
v -0.113164375 0.53125 0.026711875
v -0.050363125 0.53125 0.1056725
v -0.113164375 0.4375 0.026711875
v 0 0.4375 0.00081375
v -0.090750625 0.4375 -0.07175
v -0.050363125 0.4375 0.1056725
v 0.050363125 0.4375 0.1056725
v 0.113164375 0.4375 0.026711875
v 0.090750625 0.4375 -0.07175
v 0 0.4375 -0.11557
vt 0.63794375 0.63168125
vt 0.600409375 0.67874375
vt 0.5703125 0.61624375
vt 0.011726875 0.547720625
vt 0.07192375 0.547783125
vt 0.071915625 0.555595625
vt 0.01171875 0.555533125
vt 0.624546875 0.57299375
vt 0.63794375 0.63168125
vt 0.5703125 0.61624375
vt 0.13281875 0.42347156249999995
vt 0.193015625 0.4234465625
vt 0.19301875 0.4312590625
vt 0.132821875 0.43128406249999995
vt 0.5703125 0.546875
vt 0.624546875 0.57299375
vt 0.5703125 0.61624375
vt 0.4448071875 0.7361490625
vt 0.5050040625 0.7361490625
vt 0.5050040625 0.7439615625
vt 0.4448071875 0.7439615625
vt 0.516078125 0.57299375
vt 0.5703125 0.546875
vt 0.5703125 0.61624375
vt 0.3856109375 0.4236490625
vt 0.4458078125 0.4236490625
vt 0.4458078125 0.4314615625
vt 0.3856109375 0.4314615625
vt 0.50268125 0.63168125
vt 0.516078125 0.57299375
vt 0.5703125 0.61624375
vt 0.32261 0.7359465625
vt 0.382806875 0.7359746875
vt 0.382803125 0.7437871875
vt 0.32260625 0.7437590625
vt 0.5402125 0.67874375
vt 0.50268125 0.63168125
vt 0.5703125 0.61624375
vt 0.19370125 0.7352862499999999
vt 0.253898125 0.7352237500000001
vt 0.25390625 0.7430362500000001
vt 0.193709375 0.7430987499999999
vt 0.600409375 0.67874375
vt 0.5402125 0.67874375
vt 0.5703125 0.61624375
vt 0.2589625 0.42230625
vt 0.319159375 0.42230625
vt 0.319159375 0.43011875
vt 0.2589625 0.43011875
vt 0.326115625 0.46505937500000005
vt 0.252009375 0.46505937500000005
vt 0.2589625 0.43011875
vt 0.319159375 0.43011875
vt 0.078125 0.5902675
vt 0.0038 0.5902675
vt 0.01171875 0.555533125
vt 0.071915625 0.555595625
vt 0.19944375 0.46562781249999996
vt 0.125 0.46562781249999996
vt 0.132821875 0.43128406249999995
vt 0.19301875 0.4312590625
vt 0.5117853125 0.7782353125
vt 0.4376134375 0.77818125
vt 0.4448071875 0.7439615625
vt 0.5050040625 0.7439615625
vt 0.4530034375 0.46567781249999995
vt 0.3788315625 0.465735625
vt 0.3856109375 0.4314615625
vt 0.4458078125 0.4314615625
vt 0.390625 0.7781309375000001
vt 0.31618125 0.7781309375000001
vt 0.32260625 0.7437590625
vt 0.382803125 0.7437871875
vt 0.261825 0.7777675
vt 0.1875 0.7777675
vt 0.193709375 0.7430987499999999
vt 0.25390625 0.7430362500000001
vt 0.326115625 0.49630937500000005
vt 0.252009375 0.49630937500000005
vt 0.252009375 0.46505937500000005
vt 0.326115625 0.46505937500000005
vt 0.078125 0.6215175
vt 0.0038 0.6215175
vt 0.0038 0.5902675
vt 0.078125 0.5902675
vt 0.19944375 0.49687781249999996
vt 0.125 0.49687781249999996
vt 0.125 0.46562781249999996
vt 0.19944375 0.46562781249999996
vt 0.5117628125 0.8094853125
vt 0.4375909375 0.80943125
vt 0.4376134375 0.77818125
vt 0.5117853125 0.7782353125
vt 0.4530278125 0.49692781249999995
vt 0.3788559375 0.496985625
vt 0.3788315625 0.465735625
vt 0.4530034375 0.46567781249999995
vt 0.390625 0.8093809375000001
vt 0.31618125 0.8093809375000001
vt 0.31618125 0.7781309375000001
vt 0.390625 0.7781309375000001
vt 0.261825 0.8090175
vt 0.1875 0.8090175
vt 0.1875 0.7777675
vt 0.261825 0.7777675
vt 0.326115625 0.621309375
vt 0.252009375 0.621309375
vt 0.252009375 0.49630937500000005
vt 0.326115625 0.49630937500000005
vt 0.078125 0.7465175
vt 0.0038 0.7465175
vt 0.0038 0.6215175
vt 0.078125 0.6215175
vt 0.19944375 0.6218778125
vt 0.125 0.6218778125
vt 0.125 0.49687781249999996
vt 0.19944375 0.49687781249999996
vt 0.511671875 0.934485
vt 0.4375 0.93443125
vt 0.4375909375 0.80943125
vt 0.5117628125 0.8094853125
vt 0.453125 0.6219278125000001
vt 0.378953125 0.621985625
vt 0.3788559375 0.496985625
vt 0.4530278125 0.49692781249999995
vt 0.390625 0.9343809375
vt 0.31618125 0.9343809375
vt 0.31618125 0.8093809375000001
vt 0.390625 0.8093809375000001
vt 0.261825 0.9340175
vt 0.1875 0.9340175
vt 0.1875 0.8090175
vt 0.261825 0.8090175
vt 0.319159375 0.65625
vt 0.2589625 0.65625
vt 0.252009375 0.621309375
vt 0.326115625 0.621309375
vt 0.07191625 0.781189375
vt 0.011719375 0.78125
vt 0.003803125 0.7465175
vt 0.078125 0.7465175
vt 0.1930153125 0.65625
vt 0.1328184375 0.6562221875
vt 0.125 0.6218778125
vt 0.19944375 0.6218778125
vt 0.5048428125 0.96875
vt 0.4446459375 0.968660625
vt 0.4375 0.93443125
vt 0.511671875 0.934485
vt 0.445980625 0.6561575
vt 0.3857840625 0.65625
vt 0.378953125 0.621985625
vt 0.453125 0.6219278125000001
vt 0.382805 0.9687246875
vt 0.322608125 0.96875
vt 0.31618125 0.9343809375
vt 0.390625 0.9343809375
vt 0.25390875 0.96875
vt 0.193711875 0.968689375
vt 0.187503125 0.9340175
vt 0.261825 0.9340175
vt 0.319159375 0.6875
vt 0.2589625 0.6875
vt 0.2589625 0.65625
vt 0.319159375 0.65625
vt 0.0719478125 0.812439375
vt 0.0117509375 0.8125
vt 0.011719375 0.78125
vt 0.07191625 0.781189375
vt 0.1930009375 0.6875
vt 0.1328040625 0.6874721875
vt 0.1328184375 0.6562221875
vt 0.1930153125 0.65625
vt 0.5047965625 1
vt 0.4445996875 0.999910625
vt 0.4446459375 0.968660625
vt 0.5048428125 0.96875
vt 0.44602875 0.6874075
vt 0.385831875 0.6875
vt 0.3857840625 0.65625
vt 0.445980625 0.6561575
vt 0.382818125 0.9999746875
vt 0.32262125 1
vt 0.322608125 0.96875
vt 0.382805 0.9687246875
vt 0.2538771875 1
vt 0.1936803125 0.999939375
vt 0.193711875 0.968689375
vt 0.25390875 0.96875
vt 0.7288875 0.9375
vt 0.6617375 0.9375
vt 0.6652125 0.90625
vt 0.725409375 0.90625
vt 0.734375 0.8702624999999999
vt 0.667115625 0.8702624999999999
vt 0.671065625 0.859375
vt 0.7312625 0.859428125
vt 0.348571875 0.375
vt 0.28125 0.375
vt 0.285165625 0.34375
vt 0.3453625 0.34375
vt 0.473434375 0.33863750000000004
vt 0.40625 0.33863750000000004
vt 0.409840625 0.328165625
vt 0.4700375 0.328125
vt 0.734375 0.7448874999999999
vt 0.667190625 0.7448874999999999
vt 0.6705875 0.734375
vt 0.730784375 0.734415625
vt 0.734375 1
vt 0.667053125 1
vt 0.6702625 0.96875
vt 0.730459375 0.96875
vt 0.723509375 0.8077624999999999
vt 0.65625 0.8077624999999999
vt 0.6593625 0.796928125
vt 0.719559375 0.796875
vt 0.10330625 0.86998125
vt 0.1117 0.85250625
vt 0.15356875 0.905146875
vt 0.13470625 0.9094625
vt 0.61908125 0.42495312500000004
vt 0.5625 0.43790312499999995
vt 0.58768125 0.385471875
vt 0.15356875 0.905146875
vt 0.138625 0.9707875
vt 0.1235 0.95869375
vt 0.13470625 0.9094625
vt 0.607875 0.474184375
vt 0.5625 0.43790312499999995
vt 0.61908125 0.42495312500000004
vt 0.138625 0.9707875
vt 0.078125 1
vt 0.078125 0.980603125
vt 0.1235 0.95869375
vt 0.5625 0.49609375
vt 0.5625 0.43790312499999995
vt 0.607875 0.474184375
vt 0.078125 0.980603125
vt 0.078125 1
vt 0.017625 0.9707875
vt 0.03275 0.95869375
vt 0.517125 0.474184375
vt 0.5625 0.43790312499999995
vt 0.5625 0.49609375
vt 0.03275 0.95869375
vt 0.017625 0.9707875
vt 0.00268125 0.905146875
vt 0.02154375 0.9094625
vt 0.50591875 0.42495312500000004
vt 0.5625 0.43790312499999995
vt 0.517125 0.474184375
vt 0.00268125 0.905146875
vt 0.04455 0.85250625
vt 0.05294375 0.86998125
vt 0.02154375 0.9094625
vt 0.53731875 0.385471875
vt 0.5625 0.43790312499999995
vt 0.50591875 0.42495312500000004
vt 0.05294375 0.86998125
vt 0.04455 0.85250625
vt 0.1117 0.85250625
vt 0.10330625 0.86998125
vt 0.58768125 0.385471875
vt 0.5625 0.43790312499999995
vt 0.53731875 0.385471875
vt 0.5625 0.9375
vt 0.625 0.9375
vt 0.625 1
vt 0.5625 1
vt 0.5625 0.75
vt 0.625 0.75
vt 0.625 0.8125
vt 0.5625 0.8125
vt 0 0.4375
vt 0.0625 0.4375
vt 0.0625 0.5
vt 0 0.5
vt 0 0.34375
vt 0.0625 0.34375
vt 0.0625 0.40625
vt 0 0.40625
vt 0.5625 0.84375
vt 0.625 0.84375
vt 0.625 0.90625
vt 0.5625 0.90625
vt 0.09375 0.3125
vt 0.15625 0.3125
vt 0.15625 0.375
vt 0.09375 0.375
vt 0.1875 0.3125
vt 0.25 0.3125
vt 0.25 0.375
vt 0.1875 0.375
vn 0 -1 0
vn 0.7818306784015021 0 0.6234908101249343
vn 0 -1 0
vn 0.9749269261635831 0 -0.22252525394037267
vn 0 -1 0
vn 0.43388491981113037 0 -0.9009682993094091
vn 0 -1 0
vn -0.43388491981113037 0 -0.9009682993094091
vn 0 -1 0
vn -0.9749269261635831 0 -0.22252525394037267
vn 0 -1 0
vn -0.7818306784015021 0 0.6234908101249343
vn 0 -1 0
vn 0 0 1
vn 0 -0.44721359549995804 0.8944271909999161
vn 0.7047403695713281 -0.4364750918160451 0.5593125295580664
vn 0.8873045493924224 -0.41481021389329464 -0.20155178758152834
vn 0.3977431855517546 -0.4076642184591456 -0.8219551346242914
vn -0.3972048520340006 -0.4104213214540999 -0.8208426429081997
vn -0.8866307063221336 -0.41632264494900567 -0.2013987237034505
vn -0.7059889538778649 -0.4331739020976215 0.5603034602284357
vn 0 0 1
vn 0.7832917303743624 0 0.6216542971194984
vn 0.9751585801423789 0 -0.2215078860327548
vn 0.43558130124810107 0 -0.9001493931581641
vn -0.43558130124810107 0 -0.9001493931581641
vn -0.9751585801423789 0 -0.2215078860327548
vn -0.7832917303743624 0 0.6216542971194984
vn 0 0 1
vn 0.7832917303743624 0 0.6216542971194984
vn 0.9751585801423789 0 -0.2215078860327548
vn 0.43558130124810107 0 -0.9001493931581641
vn -0.43558130124810107 0 -0.9001493931581641
vn -0.9751585801423789 0 -0.2215078860327548
vn -0.7832917303743624 0 0.6216542971194984
vn 0 0.447213595499958 0.894427190999916
vn 0.7032619456819734 0.43690693356337457 0.5608341708204434
vn 0.8871812805422413 0.41461325176210895 -0.2024974738575249
vn 0.3962580012500691 0.40733450947999045 -0.822835459756078
vn -0.3955972833014968 0.41073173469905516 -0.8214634693981104
vn -0.88634817023625 0.416483697411367 -0.20230731798283735
vn -0.7048007450584559 0.4328313482255271 0.5620613256205395
vn 0 0 1
vn 0.7818306784015021 0 0.6234908101249343
vn 0.9749269261635831 0 -0.22252525394037267
vn 0.43388491981113037 0 -0.9009682993094091
vn -0.43388491981113037 0 -0.9009682993094091
vn -0.9749269261635831 0 -0.22252525394037267
vn -0.7818306784015021 0 0.6234908101249343
vn 0 -0.7071067811865476 0.7071067811865476
vn 0.5615518690717658 -0.696546949401094 0.44663390558939475
vn 0.7206070757211975 -0.6736593484044647 -0.16403818070137288
vn 0.32440452538449666 -0.6658728928769377 -0.671844471914265
vn -0.32311651909122896 -0.6691770001615296 -0.6691770001615296
vn -0.7190074671676492 -0.6754547122448433 -0.163674047617201
vn -0.564362321603054 -0.6928286915542927 0.44886921716016337
vn 0 1 0
vn 0 1 0
vn 0 1 0
vn 0 1 0
vn 0 1 0
vn 0 1 0
vn 0 1 0
vn 0 1 0
vn 0 1 0
vn 0 1 0
vn 0 1 0
vn 0 1 0
vn 0 1 0
vn 0 1 0
vn 0.9750556432842962 0 0.22196056518996202
vn 0.7826413162553489 0 -0.6224729472756989
vn 0 0 -1
vn -0.7826413162553489 0 -0.6224729472756989
vn -0.9750556432842962 0 0.22196056518996202
vn -0.4348243357929065 0 0.9005152952628055
vn 0.4348243357929065 0 0.9005152952628055
usemtl m_4890c868-4144-2be6-6a67-f4186df2499b
f 4/1/1 2/2/1 1/3/1
f 2/4/2 4/5/2 5/6/2 3/7/2
f 6/8/3 4/9/3 1/10/3
f 4/11/4 6/12/4 7/13/4 5/14/4
f 8/15/5 6/16/5 1/17/5
f 6/18/6 8/19/6 9/20/6 7/21/6
f 10/22/7 8/23/7 1/24/7
f 8/25/8 10/26/8 11/27/8 9/28/8
f 12/29/9 10/30/9 1/31/9
f 10/32/10 12/33/10 13/34/10 11/35/10
f 14/36/11 12/37/11 1/38/11
f 12/39/12 14/40/12 15/41/12 13/42/12
f 2/43/13 14/44/13 1/45/13
f 14/46/14 2/47/14 3/48/14 15/49/14
f 17/50/15 16/51/15 15/52/15 3/53/15
f 18/54/16 17/55/16 3/56/16 5/57/16
f 19/58/17 18/59/17 5/60/17 7/61/17
f 20/62/18 19/63/18 7/64/18 9/65/18
f 21/66/19 20/67/19 9/68/19 11/69/19
f 22/70/20 21/71/20 11/72/20 13/73/20
f 16/74/21 22/75/21 13/76/21 15/77/21
f 24/78/22 23/79/22 16/80/22 17/81/22
f 25/82/23 24/83/23 17/84/23 18/85/23
f 26/86/24 25/87/24 18/88/24 19/89/24
f 27/90/25 26/91/25 19/92/25 20/93/25
f 28/94/26 27/95/26 20/96/26 21/97/26
f 29/98/27 28/99/27 21/100/27 22/101/27
f 23/102/28 29/103/28 22/104/28 16/105/28
f 31/106/29 30/107/29 23/108/29 24/109/29
f 32/110/30 31/111/30 24/112/30 25/113/30
f 33/114/31 32/115/31 25/116/31 26/117/31
f 34/118/32 33/119/32 26/120/32 27/121/32
f 35/122/33 34/123/33 27/124/33 28/125/33
f 36/126/34 35/127/34 28/128/34 29/129/34
f 30/130/35 36/131/35 29/132/35 23/133/35
f 38/134/36 37/135/36 30/136/36 31/137/36
f 39/138/37 38/139/37 31/140/37 32/141/37
f 40/142/38 39/143/38 32/144/38 33/145/38
f 41/146/39 40/147/39 33/148/39 34/149/39
f 42/150/40 41/151/40 34/152/40 35/153/40
f 43/154/41 42/155/41 35/156/41 36/157/41
f 37/158/42 43/159/42 36/160/42 30/161/42
f 45/162/43 44/163/43 37/164/43 38/165/43
f 46/166/44 45/167/44 38/168/44 39/169/44
f 47/170/45 46/171/45 39/172/45 40/173/45
f 48/174/46 47/175/46 40/176/46 41/177/46
f 49/178/47 48/179/47 41/180/47 42/181/47
f 50/182/48 49/183/48 42/184/48 43/185/48
f 44/186/49 50/187/49 43/188/49 37/189/49
f 52/190/50 51/191/50 44/192/50 45/193/50
f 53/194/51 52/195/51 45/196/51 46/197/51
f 54/198/52 53/199/52 46/200/52 47/201/52
f 55/202/53 54/203/53 47/204/53 48/205/53
f 56/206/54 55/207/54 48/208/54 49/209/54
f 57/210/55 56/211/55 49/212/55 50/213/55
f 51/214/56 57/215/56 50/216/56 44/217/56
f 58/218/57 52/219/57 53/220/57 59/221/57
f 70/222/58 66/223/58 69/224/58
f 53/225/59 54/226/59 60/227/59 59/228/59
f 71/229/60 66/230/60 70/231/60
f 54/232/61 55/233/61 61/234/61 60/235/61
f 72/236/62 66/237/62 71/238/62
f 61/239/63 55/240/63 56/241/63 62/242/63
f 67/243/64 66/244/64 72/245/64
f 62/246/65 56/247/65 57/248/65 63/249/65
f 65/250/66 66/251/66 67/252/66
f 57/253/67 51/254/67 64/255/67 63/256/67
f 68/257/68 66/258/68 65/259/68
f 64/260/69 51/261/69 52/262/69 58/263/69
f 69/264/70 66/265/70 68/266/70
f 65/267/71 67/268/71 62/269/71 63/270/71
f 68/271/72 65/272/72 63/273/72 64/274/72
f 69/275/73 68/276/73 64/277/73 58/278/73
f 70/279/74 69/280/74 58/281/74 59/282/74
f 71/283/75 70/284/75 59/285/75 60/286/75
f 72/287/76 71/288/76 60/289/76 61/290/76
f 67/291/77 72/292/77 61/293/77 62/294/77