# Made in Blockbench 5.0.4
mtllib Rocks.mtl

o BigRock1
v 0 -0.234375 0
v -0.018654375 0.810478125 -0.0267125
v 0.08498 0.66237625 0.290425625
v 0.158300625 0.35864625 0.5804125
v 0.174001875 0.193499375 0.655828125
v 0.152283125 -0.0234375 0.527734375
v 0.087920625 -0.177854375 0.3046875
v 0.2267875 0.72343 0.200484375
v 0.463613125 0.395204375 0.42016375
v 0.4958 0.190176875 0.4463575
v 0.416045625 -0.0234375 0.386328125
v 0.240204375 -0.177854375 0.223046875
v 0.309470625 0.7539575 0.054928125
v 0.611885625 0.42173125 0.1401225
v 0.671641875 0.190176875 0.163545625
v 0.568329375 -0.0234375 0.14140625
v 0.328125 -0.177854375 0.081640625
v 0.28654375 0.702813125 -0.102655625
v 0.583720625 0.401114375 -0.141141875
v 0.671641875 0.190176875 -0.1630175
v 0.568329375 -0.0234375 -0.14140625
v 0.328125 -0.177854375 -0.081640625
v 0.22940625 0.708166875 -0.24353375
v 0.4154325 0.4004375 -0.37084375
v 0.479795 0.1895 -0.430609375
v 0.416045625 -0.0234375 -0.386328125
v 0.240204375 -0.177854375 -0.223046875
v 0.06926625 0.7539575 -0.3314
v 0.15089125 0.40970125 -0.560778125
v 0.177068125 0.1835 -0.64034375
v 0.152283125 -0.0234375 -0.527734375
v 0.087920625 -0.177854375 -0.3046875
v -0.10395625 0.73869375 -0.329325
v -0.211396875 0.379730625 -0.590726875
v -0.176455 0.1895 -0.593890625
v -0.152283125 -0.0234375 -0.527734375
v -0.087920625 -0.177854375 -0.3046875
v -0.25624 0.73869375 -0.24768375
v -0.475159375 0.379730625 -0.44932125
v -0.481021875 0.1895 -0.430609375
v -0.416045625 -0.0234375 -0.386328125
v -0.240204375 -0.177854375 -0.223046875
v -0.32353125 0.71084375 -0.10186375
v -0.62683 0.377730625 -0.219883125
v -0.65625 0.1875 -0.16328125
v -0.568329375 -0.0234375 -0.14140625
v -0.328125 -0.177854375 -0.081640625
v -0.3389225 0.708166875 0.06115375
v -0.57016875 0.40443687500000003 0.18785875
v -0.65809 0.193499375 0.209734375
v -0.568329375 -0.0234375 0.14140625
v -0.328125 -0.177854375 0.081640625
v -0.225134375 0.649789375 0.21112375
v -0.4126475 0.37390999999999996 0.43693125
v -0.482248125 0.193499375 0.49254625
v -0.416045625 -0.0234375 0.386328125
v -0.240204375 -0.177854375 0.223046875
v -0.072071875 0.640525625 0.341293125
v -0.14810625 0.36464625 0.626865625
v -0.17768125 0.193499375 0.655828125
v -0.152283125 -0.0234375 0.527734375
v -0.087920625 -0.177854375 0.3046875
vt 0.3415015625 0.453125
vt 0.2988590625 0.4398190625
vt 0.336413125 0.36200796874999996
vt 0.388854375 0.7743384375
vt 0.395595 0.667980625
vt 0.4783159375 0.69390046875
vt 0.42708171875 0.796875
vt 0.395595 0.667980625
vt 0.39965625 0.6226034375
vt 0.493001875 0.645000625
vt 0.4776053125 0.6936778125
vt 0.78223984375 0.7066145312500001
vt 0.77681015625 0.6436318750000001
vt 0.84929578125 0.6250934375
vt 0.8737275 0.6783215625
vt 0.2157078125 0.9886971875
vt 0.19451890625 0.922293125
vt 0.23274796875 0.902180625
vt 0.28192203125 0.9538615625
vt 0.23274796875 0.902180625
vt 0.19451890625 0.922293125
vt 0.17253859375 0.844820625
vt 0.2988590625 0.4398190625
vt 0.26674375 0.41192234375000003
vt 0.33641328125 0.36200750000000004
vt 0.0451690625 0.609375
vt 0.01194375 0.4991440625
vt 0.09133609375 0.49512187500000004
vt 0.087541875 0.60931171875
vt 0.01194375 0.4991440625
vt 0.00302625 0.44761390624999997
vt 0.08539203125 0.43548062499999995
vt 0.091233125 0.49512703125
vt 0.62921625 0.97850578125
vt 0.6455759375 0.921875
vt 0.7155471875 0.939265625
vt 0.7100128125 0.998586875
vt 0.285758125 0.9499196875
vt 0.23274796875 0.902180625
vt 0.25527765625 0.86717625
vt 0.3247796875 0.889291875
vt 0.25527765625 0.86717625
vt 0.23274796875 0.902180625
vt 0.17253953125 0.8448215625
vt 0.26674375 0.41192234375000003
vt 0.25392625 0.37212078125000003
vt 0.33641375 0.36200718750000005
vt 0.11897390625 0.606168125
vt 0.09124671875 0.4952665625
vt 0.1620275 0.49201390624999997
vt 0.15923734375 0.5979992187500001
vt 0.09124671875 0.4952665625
vt 0.08539203125 0.43548062499999995
vt 0.16703265625 0.43548062499999995
vt 0.16156390625 0.4920353125
vt 0.7100128125 0.9985875
vt 0.7155471875 0.939265625
vt 0.7862503125 0.939265625
vt 0.7916534375 0.9985875
vt 0.3262971875 0.88378453125
vt 0.25527765625 0.86717625
vt 0.25623359375 0.8263654687499999
vt 0.32795296875 0.8131009375
vt 0.25623359375 0.8263654687499999
vt 0.25527765625 0.86717625
vt 0.172539375 0.8448215625
vt 0.25392625 0.37212078125000003
vt 0.25480765625 0.33410140624999995
vt 0.33641515625 0.36200703125
vt 0.17222109375 0.59837296875
vt 0.16150859375 0.4926071875
vt 0.23058390625 0.509820625
vt 0.20919 0.60241328125
vt 0.16150859375 0.4926071875
vt 0.16703265625 0.43548062499999995
vt 0.24697375 0.45510343750000004
vt 0.230580625 0.50981984375
vt 0.79165328125 0.9985865625
vt 0.7862503125 0.939265625
vt 0.8562259375 0.92189265625
vt 0.87078375 0.9764371875
vt 0.326695 0.80752859375
vt 0.25623359375 0.8263654687499999
vt 0.2353678125 0.79034453125
vt 0.29055515625 0.74514015625
vt 0.2353678125 0.79034453125
vt 0.25623359375 0.8263654687499999
vt 0.17253953125 0.84482140625
vt 0.25480765625 0.33410140624999995
vt 0.286219375 0.29903390625000004
vt 0.33641375 0.36200656249999996
vt 0.4178771875 0.99203796875
vt 0.3685821875 0.910401875
vt 0.44597375 0.885015625
vt 0.4648221875 0.98872125
vt 0.3685821875 0.910401875
vt 0.34530609375 0.85823484375
vt 0.43174015625 0.82647921875
vt 0.44593328125 0.88502875
vt 0.521016875 0.43045781250000004
vt 0.54286953125 0.37818109375
vt 0.61554875 0.3959453125
vt 0.60944828125 0.45392671875
vt 0.28690796875 0.7410229687500001
vt 0.2353678125 0.79034453125
vt 0.19812234375 0.7684640625
vt 0.2223975 0.703125
vt 0.19812234375 0.7684640625
vt 0.2353678125 0.79034453125
vt 0.17253859375 0.84482234375
vt 0.286219375 0.29903390625000004
vt 0.326231875 0.28202765625000004
vt 0.336413125 0.36200578125000005
vt 0.46482375 0.9887296875
vt 0.44597375 0.885015625
vt 0.5367159375 0.8759859375
vt 0.5081003125 0.9865046875
vt 0.0209684375 0.40625
vt 0.0119934375 0.34661875
vt 0.1011325 0.3482015625
vt 0.1098996875 0.39320468750000004
vt 0.609351875 0.45484375
vt 0.61554875 0.3959453125
vt 0.691689375 0.3959453125
vt 0.697733125 0.450609375
vt 0.61554875 0.3959453125
vt 0.631639375 0.328125
vt 0.67559875 0.328125
vt 0.691689375 0.3959453125
vt 0.15421125 0.766405625
vt 0.19812234375 0.7684640625
vt 0.17253921875 0.84482015625
vt 0.326231875 0.28202765625000004
vt 0.3692721875 0.28570343750000005
vt 0.336413125 0.36200609375000004
vt 0.508086875 0.98655625
vt 0.5367159375 0.8759859375
vt 0.60781890625 0.89927109375
vt 0.54913859375 1
vt 0.11037984375 0.3956690625
vt 0.1011325 0.3482015625
vt 0.1875 0.34607015625000004
vt 0.18517578125 0.39382328125
vt 0.1011325 0.3482015625
vt 0.10223890625 0.2921415625
vt 0.17703484375 0.29029578125
vt 0.1875 0.34607015625000004
vt 0.061020625 0.70814015625
vt 0.10815296875 0.759491875
vt 0.0819153125 0.7938075
vt 0.0155759375 0.76757609375
vt 0.109710625 0.79034453125
vt 0.14695609375 0.7684640625
vt 0.17253984375 0.84482234375
vt 0.3692721875 0.28570343750000005
vt 0.40114625 0.3110921875
vt 0.336413125 0.36200625
vt 0.45261015625 0.6023259375000001
vt 0.390625 0.50359453125
vt 0.452108125 0.47280703125
vt 0.4875484375 0.5833482812499999
vt 0.48850921875 0.8421434375
vt 0.491570625 0.794431875
vt 0.571414375 0.79115828125
vt 0.55721015625 0.8392646875
vt 0.491570625 0.794431875
vt 0.48993296875 0.73770890625
vt 0.561965 0.734580625
vt 0.57139125 0.7911592187500001
vt 0.0155753125 0.7675759375
vt 0.0819153125 0.7938075
vt 0.07302203125 0.83447453125
vt 0.00017203125 0.83801125
vt 0.08884484375 0.8263654687499999
vt 0.109710625 0.79034453125
vt 0.17253890625 0.84482140625
vt 0.40114625 0.3110921875
vt 0.421875 0.34639718750000004
vt 0.33641296875 0.36200640625
vt 0.4876534375 0.58367578125
vt 0.452108125 0.47280703125
vt 0.5548565625 0.48169609375
vt 0.5279628125 0.57846328125
vt 0.5572096875 0.83926609375
vt 0.571414375 0.79115828125
vt 0.6646690625 0.79267703125
vt 0.6590378125 0.84811453125
vt 0.571414375 0.79115828125
vt 0.57685640625 0.73402453125
vt 0.64755953125 0.73399125
vt 0.66466984375 0.79267703125
vt 0.00017203125 0.83801125
vt 0.07302203125 0.83447453125
vt 0.083311875 0.873978125
vt 0.0179940625 0.90643140625
vt 0.08980078125 0.86717625
vt 0.08884484375 0.8263654687499999
vt 0.1725390625 0.8448215625
vt 0.421875 0.34639718750000004
vt 0.4182025 0.3955340625
vt 0.33641203125 0.36200656249999996
vt 0.5279309375 0.57857796875
vt 0.5548565625 0.48169609375
vt 0.62690671875 0.49887765625
vt 0.575854375 0.58517484375
vt 0.65886890625 0.8497771875
vt 0.6646690625 0.79267703125
vt 0.74586578125 0.81107421875
vt 0.73223515625 0.859375
vt 0.0964078125 0.703125
vt 0.09375 0.640625
vt 0.16585 0.640625
vt 0.1796625 0.703125
vt 0.0179940625 0.90643140625
vt 0.083311875 0.873978125
vt 0.110915 0.90513859375
vt 0.0658025 0.96040140625
vt 0.11233046875 0.902180625
vt 0.08980078125 0.86717625
vt 0.17253890625 0.8448215625
vt 0.4182025 0.3955340625
vt 0.3996834375 0.44228484375
vt 0.336411875 0.36200656249999996
vt 0.5756315625 0.58555171875
vt 0.62690671875 0.49887765625
vt 0.69565625 0.54255
vt 0.61986109375 0.609375
vt 0.23926984375 0.6794193749999999
vt 0.225748125 0.630968125
vt 0.3117359375 0.6226034375
vt 0.3189840625 0.6651437499999999
vt 0.6106475 0.6851
vt 0.6282078125 0.625
vt 0.70066953125 0.6436318750000001
vt 0.69431953125 0.706614375
vt 0.06580296875 0.9604009375
vt 0.110915 0.90513859375
vt 0.15055953125 0.922293125
vt 0.13446890625 0.99011328125
vt 0.15055953125 0.922293125
vt 0.11233046875 0.902180625
vt 0.17253984375 0.844820625
vt 0.38313234375 0.45292078125
vt 0.3415015625 0.453125
vt 0.336413125 0.36200828124999995
vt 0.346701875 0.76323546875
vt 0.3191296875 0.66599875
vt 0.39661921875 0.6664635937500001
vt 0.3872578125 0.77262328125
vt 0.3191296875 0.66599875
vt 0.3117359375 0.6226034375
vt 0.39965625 0.6226034375
vt 0.39573125 0.666458125
vt 0.69431953125 0.7066146875
vt 0.70066953125 0.6436318750000001
vt 0.77681015625 0.6436318750000001
vt 0.78223984375 0.7066146875
vt 0.13446890625 0.9901134375
vt 0.15055953125 0.922293125
vt 0.19451890625 0.922293125
vt 0.21060953125 0.9901134375
vt 0.19451890625 0.922293125
vt 0.15055953125 0.922293125
vt 0.17253921875 0.8448228125
vn -0.09891397990254382 0.8888430147550279 0.4474082248920246
vn 0.265186395370876 0.6985511482757435 0.6646070033883494
vn 0.5033356010377089 0.39808014762761373 0.7669325060217396
vn 0.4108975785390039 -0.4936934996184697 0.766439761745991
vn 0.26576173860948615 -0.826818416424302 0.49572371796482845
vn 0.08473022054160965 -0.9837896185077888 0.15804675334618462
vn 0.1010578236843837 0.9606098758920921 0.2588744533760634
vn 0.6055624054980139 0.6956275935475589 0.38651833610152475
vn 0.8326153426135416 0.19684923477302743 0.5176891635081892
vn 0.7699174555699279 -0.42197905604027003 0.47870741363811237
vn 0.4655999214795454 -0.8363083621400028 0.28949099559908104
vn 0.1469263071116075 -0.9849199619970184 0.09135277083010457
vn 0.2395864838449732 0.912682692961863 -0.33107192379705724
vn 0.7493811305146302 0.650664306687499 -0.12273500410026116
vn 0.9682770381333101 0.2498791256263401 0
vn 0.9002406861498661 -0.43539258951022397 0
vn 0.5407570382107695 -0.8411788309423369 0
vn 0.16975334847573129 -0.9854865806703189 0
vn 0.31126274423741535 0.9460248839084958 -0.09029076960415441
vn 0.6079729358305124 0.6559277021923244 -0.4473564113705372
vn 0.7543890013983766 0.3706252936198742 -0.54178789788841
vn 0.7703023433872351 -0.4210039620420911 -0.478946723255307
vn 0.4655983464496952 -0.8363095779914254 -0.2894900163099135
vn 0.1469263071116075 -0.9849199619970184 -0.09135277083010457
vn 0.3162948607127183 0.9449330478597702 -0.08401842743807703
vn 0.4923448188759954 0.5698263765418837 -0.6579471710731117
vn 0.5226002905722449 0.3762301567720837 -0.7650750325484805
vn 0.44939297726618427 -0.30885605822184775 -0.8382445271419894
vn 0.2657623809764069 -0.8268174915591281 -0.4957249161678504
vn 0.08473022054160965 -0.9837896185077888 -0.15804675334618462
vn -0.0883403041938396 0.9745002978510079 -0.20626478163573403
vn 0.022409801170194348 0.5580243778798849 -0.8295219071870735
vn -0.11825357820967719 0.3172841553573793 -0.9409287199356614
vn 0 -0.47798295064222535 -0.8783691131269086
vn 0 -0.8221925234004821 -0.5692094996258829
vn 0 -0.9832259058937692 -0.1823919350721871
vn -0.10757692571780038 0.9737362858547449 -0.20066103424161308
vn -0.3719793644837817 0.616607145373143 -0.693849393365034
vn -0.4712677885738149 -0.07194363333784279 -0.8790510708001533
vn -0.4490329163250377 -0.3111929579617734 -0.8375729120331159
vn -0.26576173860948615 -0.826818416424302 -0.49572371796482845
vn -0.08473022054160965 -0.9837896185077888 -0.15804675334618462
vn -0.31805588695524023 0.9474556022074487 0.03418091015224724
vn -0.648313857406692 0.6330218317156096 -0.42305141870211244
vn -0.8359151880874943 -0.028155819156493938 -0.5481359759879622
vn -0.7967355787607495 -0.3461345378134568 -0.4953819730969613
vn -0.4655999214795454 -0.8363083621400028 -0.28949099559908104
vn -0.1469263071116075 -0.9849199619970184 -0.09135277083010457
vn -0.3076164689851543 0.951415785789742 -0.013420527530368374
vn -0.7486837715782421 0.6601330774082045 0.0608023871813626
vn -0.9885508218758248 0.1507115750755474 -0.007300253891429705
vn -0.9230303096410868 -0.3847272377722683 0
vn -0.5407570382107695 -0.8411788309423369 0
vn -0.16975334847573129 -0.9854865806703189 0
vn -0.15412380753870475 0.875605135638009 0.4577788749976524
vn -0.6027698249595538 0.6512458290421035 0.4610286414893246
vn -0.7861033747077444 0.3783458855999262 0.4887697567594617
vn -0.7541634921804319 -0.4597377688219278 0.4689121569983566
vn -0.4655983464496952 -0.8363095779914254 0.2894900163099135
vn -0.1469263071116075 -0.9849199619970184 0.09135277083010457
vn -0.2631430200631398 0.889839046991695 0.37274954250939335
vn -0.3835281789296715 0.7269271869326163 0.5696340938401802
vn -0.4302353089487226 0.4133696081416191 0.8025105270329116
vn -0.4094811655170401 -0.49893703868952427 0.763797752360227
vn -0.2657623809764069 -0.8268174915591281 0.4957249161678504
vn -0.08473022054160965 -0.9837896185077888 0.15804675334618462
vn 0.00994764014148011 0.9072666550717189 0.42043817744180917
vn 0.12071909715706161 0.6976926949805361 0.7061528184128282
vn 0 0.16685372625342346 0.9859816600907686
vn 0 -0.5084461964182939 0.8610937610665693
vn 0 -0.8221925234004821 0.5692094996258829
vn 0 -0.9832259058937692 0.1823919350721871
usemtl m_8a76bc50-6768-0a8f-d2c8-0c0dcd087ff5
f 3/1/1 8/2/1 2/3/1
f 3/4/2 4/5/2 9/6/2 8/7/2
f 4/8/3 5/9/3 10/10/3 9/11/3
f 5/12/4 6/13/4 11/14/4 10/15/4
f 6/16/5 7/17/5 12/18/5 11/19/5
f 12/20/6 7/21/6 1/22/6
f 8/23/7 13/24/7 2/25/7
f 8/26/8 9/27/8 14/28/8 13/29/8
f 9/30/9 10/31/9 15/32/9 14/33/9
f 10/34/10 11/35/10 16/36/10 15/37/10
f 11/38/11 12/39/11 17/40/11 16/41/11
f 17/42/12 12/43/12 1/44/12
f 13/45/13 18/46/13 2/47/13
f 13/48/14 14/49/14 19/50/14 18/51/14
f 14/52/15 15/53/15 20/54/15 19/55/15
f 15/56/16 16/57/16 21/58/16 20/59/16
f 16/60/17 17/61/17 22/62/17 21/63/17
f 22/64/18 17/65/18 1/66/18
f 18/67/19 23/68/19 2/69/19
f 18/70/20 19/71/20 24/72/20 23/73/20
f 19/74/21 20/75/21 25/76/21 24/77/21
f 20/78/22 21/79/22 26/80/22 25/81/22
f 21/82/23 22/83/23 27/84/23 26/85/23
f 27/86/24 22/87/24 1/88/24
f 23/89/25 28/90/25 2/91/25
f 23/92/26 24/93/26 29/94/26 28/95/26
f 24/96/27 25/97/27 30/98/27 29/99/27
f 25/100/28 26/101/28 31/102/28 30/103/28
f 26/104/29 27/105/29 32/106/29 31/107/29
f 32/108/30 27/109/30 1/110/30
f 28/111/31 33/112/31 2/113/31
f 28/114/32 29/115/32 34/116/32 33/117/32
f 29/118/33 30/119/33 35/120/33 34/121/33
f 30/122/34 31/123/34 36/124/34 35/125/34
f 31/126/35 32/127/35 37/128/35 36/129/35
f 37/130/36 32/131/36 1/132/36
f 33/133/37 38/134/37 2/135/37
f 33/136/38 34/137/38 39/138/38 38/139/38
f 34/140/39 35/141/39 40/142/39 39/143/39
f 35/144/40 36/145/40 41/146/40 40/147/40
f 36/148/41 37/149/41 42/150/41 41/151/41
f 42/152/42 37/153/42 1/154/42
f 38/155/43 43/156/43 2/157/43
f 38/158/44 39/159/44 44/160/44 43/161/44
f 39/162/45 40/163/45 45/164/45 44/165/45
f 40/166/46 41/167/46 46/168/46 45/169/46
f 41/170/47 42/171/47 47/172/47 46/173/47
f 47/174/48 42/175/48 1/176/48
f 43/177/49 48/178/49 2/179/49
f 43/180/50 44/181/50 49/182/50 48/183/50
f 44/184/51 45/185/51 50/186/51 49/187/51
f 45/188/52 46/189/52 51/190/52 50/191/52
f 46/192/53 47/193/53 52/194/53 51/195/53
f 52/196/54 47/197/54 1/198/54
f 48/199/55 53/200/55 2/201/55
f 48/202/56 49/203/56 54/204/56 53/205/56
f 49/206/57 50/207/57 55/208/57 54/209/57
f 50/210/58 51/211/58 56/212/58 55/213/58
f 51/214/59 52/215/59 57/216/59 56/217/59
f 57/218/60 52/219/60 1/220/60
f 53/221/61 58/222/61 2/223/61
f 53/224/62 54/225/62 59/226/62 58/227/62
f 54/228/63 55/229/63 60/230/63 59/231/63
f 55/232/64 56/233/64 61/234/64 60/235/64
f 56/236/65 57/237/65 62/238/65 61/239/65
f 62/240/66 57/241/66 1/242/66
f 58/243/67 3/244/67 2/245/67
f 58/246/68 59/247/68 4/248/68 3/249/68
f 59/250/69 60/251/69 5/252/69 4/253/69
f 60/254/70 61/255/70 6/256/70 5/257/70
f 61/258/71 62/259/71 7/260/71 6/261/71
f 7/262/72 62/263/72 1/264/72