# Made in Blockbench 5.0.4
mtllib Bubbles.mtl

o BubbleSmall
v 0.012640625 0.025281874999999995 -0.015625000000000003
v 0.004828125 0.031249999999999997 -0.015625000000000003
v 0 0.015624999999999997 -0.015625
v -0.004828125 0.031249999999999997 -0.015625000000000003
v -0.012640625 0.025281874999999995 -0.015625000000000003
v -0.015625 0.015624999999999997 -0.015625
v -0.012640625 0.005968124999999996 -0.015624999999999998
v -0.004828125 -3.469446951953614e-18 -0.015624999999999997
v 0.004828125 -3.469446951953614e-18 -0.015624999999999997
v 0.012640625 0.005968124999999996 -0.015624999999999998
v 0.015625 0.015624999999999997 -0.015625
vt 0.2261 0.79775
vt 0.25 0.875
vt 0.125 0.875
vt 0.25 0.875
vt 0.22615 0.95225
vt 0.125 0.875
vt 0.22615 0.95225
vt 0.16365 1
vt 0.125 0.875
vt 0.16365 1
vt 0.0864 1
vt 0.125 0.875
vt 0.0864 1
vt 0.0239 0.95225
vt 0.125 0.875
vt 0.0239 0.95225
vt 0 0.875
vt 0.125 0.875
vt 0 0.875
vt 0.02385 0.79775
vt 0.125 0.875
vt 0.02385 0.79775
vt 0.08635 0.75
vt 0.125 0.875
vt 0.08635 0.75
vt 0.1636 0.75
vt 0.125 0.875
vt 0.1636 0.75
vt 0.2261 0.79775
vt 0.125 0.875
vn 0 2.220446049250313e-16 1
vn 0 2.220446049250313e-16 1
vn 0 2.220446049250313e-16 1
vn 0 2.220446049250313e-16 1
vn 0 2.220446049250313e-16 1
vn 0 2.220446049250313e-16 1
vn 0 2.220446049250313e-16 1
vn 0 2.220446049250313e-16 1
vn 0 2.220446049250313e-16 1
vn 0 2.220446049250313e-16 1
usemtl m_74443e38-3c4b-8a00-b9fa-d4d36a0fa2a3
f 10/1/1 11/2/1 3/3/1
f 11/4/2 1/5/2 3/6/2
f 1/7/3 2/8/3 3/9/3
f 2/10/4 4/11/4 3/12/4
f 4/13/5 5/14/5 3/15/5
f 5/16/6 6/17/6 3/18/6
f 6/19/7 7/20/7 3/21/7
f 7/22/8 8/23/8 3/24/8
f 8/25/9 9/26/9 3/27/9
f 9/28/10 10/29/10 3/30/10