# Made in Blockbench 5.0.4
mtllib Bubbles.mtl

o BubbleMedium
v 0.0379225 0.017904375 6.432770982556235e-18
v 0.014485 0.09375 -1.0408340855860843e-17
v 0.0379225 0.075845625 -0.015625000000000007
v 0.014485 0.09375 -0.01562500000000001
v 0 0.046875 -0.015625
v -0.014485 0.09375 -0.01562500000000001
v -0.0379225 0.075845625 -0.015625000000000007
v -0.046875 0.046875 -0.015625
v -0.0379225 0.017904374999999997 -0.015624999999999993
v -0.014485 0 -0.01562499999999999
v 0.014485 0 -0.01562499999999999
v 0.0379225 0.017904374999999997 -0.015624999999999993
v 0.046875 0.046875 -0.015625
vt 0.3392 0.696625
vt 0.375 0.8125
vt 0.1875 0.8125
vt 0.375 0.8125
vt 0.3392 0.928375
vt 0.1875 0.8125
vt 0.3392 0.928375
vt 0.24545 1
vt 0.1875 0.8125
vt 0.24545 1
vt 0.12955 1
vt 0.1875 0.8125
vt 0.12955 1
vt 0.0358 0.928375
vt 0.1875 0.8125
vt 0.0358 0.928375
vt 0 0.8125
vt 0.1875 0.8125
vt 0 0.8125
vt 0.0358 0.696625
vt 0.1875 0.8125
vt 0.0358 0.696625
vt 0.12955 0.625
vt 0.1875 0.8125
vt 0.12955 0.625
vt 0.24545 0.625
vt 0.1875 0.8125
vt 0.24545 0.625
vt 0.3392 0.696625
vt 0.1875 0.8125
vn 0 2.220446049250313e-16 1
vn 0 2.220446049250313e-16 1
vn 0 2.220446049250313e-16 1
vn 0 2.220446049250313e-16 1
vn 0 2.220446049250313e-16 1
vn 0 2.220446049250313e-16 1
vn 0 2.220446049250313e-16 1
vn 0 2.220446049250313e-16 1
vn 0 2.220446049250313e-16 1
vn 0 2.220446049250313e-16 1
usemtl m_08539ae7-e010-3b07-858b-b608b181de85
f 12/1/1 13/2/1 5/3/1
f 13/4/2 3/5/2 5/6/2
f 3/7/3 4/8/3 5/9/3
f 4/10/4 6/11/4 5/12/4
f 6/13/5 7/14/5 5/15/5
f 7/16/6 8/17/6 5/18/6
f 8/19/7 9/20/7 5/21/7
f 9/22/8 10/23/8 5/24/8
f 10/25/9 11/26/9 5/27/9
f 11/28/10 12/29/10 5/30/10