# Made in Blockbench 5.0.4
mtllib Bubbles.mtl

o BubbleBig
v 0.075845625 0.035809375 1.2865403187234393e-17
v 0.028970625 0.1875 -2.0816681711721685e-17
v 0.075845625 0.151690625 -0.015625000000000014
v 0.028970625 0.1875 -0.01562500000000002
v 0 0.09375 -0.015625
v -0.028970625 0.1875 -0.01562500000000002
v -0.075845625 0.151690625 -0.015625000000000014
v -0.09375 0.09375 -0.015625
v -0.075845625 0.03580937499999999 -0.015624999999999988
v -0.028970625 0 -0.01562499999999998
v 0.028970625 0 -0.01562499999999998
v 0.075845625 0.03580937499999999 -0.015624999999999988
v 0.09375 0.09375 -0.015625
vt 0.678375 0.39322500000000005
vt 0.75 0.625
vt 0.375 0.625
vt 0.75 0.625
vt 0.678375 0.85675
vt 0.375 0.625
vt 0.678375 0.85675
vt 0.490875 1
vt 0.375 0.625
vt 0.490875 1
vt 0.259125 1
vt 0.375 0.625
vt 0.259125 1
vt 0.071625 0.8567750000000001
vt 0.375 0.625
vt 0.071625 0.8567750000000001
vt 0 0.625
vt 0.375 0.625
vt 0 0.625
vt 0.071625 0.39325
vt 0.375 0.625
vt 0.071625 0.39325
vt 0.259125 0.25
vt 0.375 0.625
vt 0.259125 0.25
vt 0.490875 0.25
vt 0.375 0.625
vt 0.490875 0.25
vt 0.678375 0.39322500000000005
vt 0.375 0.625
vn 0 2.220446049250313e-16 1
vn 0 2.220446049250313e-16 1
vn 0 2.220446049250313e-16 1
vn 0 2.220446049250313e-16 1
vn 0 2.220446049250313e-16 1
vn 0 2.220446049250313e-16 1
vn 0 2.220446049250313e-16 1
vn 0 2.220446049250313e-16 1
vn 0 2.220446049250313e-16 1
vn 0 2.220446049250313e-16 1
usemtl m_eba49e5c-3dfb-12a5-bbb1-481eb938c98a
f 12/1/1 13/2/1 5/3/1
f 13/4/2 3/5/2 5/6/2
f 3/7/3 4/8/3 5/9/3
f 4/10/4 6/11/4 5/12/4
f 6/13/5 7/14/5 5/15/5
f 7/16/6 8/17/6 5/18/6
f 8/19/7 9/20/7 5/21/7
f 9/22/8 10/23/8 5/24/8
f 10/25/9 11/26/9 5/27/9
f 11/28/10 12/29/10 5/30/10