# Made in Blockbench 5.0.4
mtllib Walls.mtl

o cuboid
v -3.125 7.28125 0.062499999999999306
v 9.375 7.28125 -0.06249999999999792
v -9.375 7.28125 -0.06250000000000208
v 9.375 -7.09375 -0.06249999999999792
v -9.375 -7.09375 -0.06250000000000208
v 9.375 7.28125 0.06250000000000208
v -9.375 7.28125 0.06249999999999792
v 9.375 -7.09375 0.06250000000000208
v -9.375 -7.09375 0.06249999999999792
v 9.375 5.40625 0.06250000000000208
v -9.375 5.40625 0.06249999999999792
v -9.375 5.40625 -0.06250000000000208
v 9.375 5.40625 -0.06249999999999792
v 9.375 3.21875 0.06250000000000208
v -9.375 3.21875 0.06249999999999792
v -9.375 3.21875 -0.06250000000000208
v 9.375 3.21875 -0.06249999999999792
v -3.125 3.21875 0.062499999999999306
v -3.125 5.40625 0.062499999999999306
v 3.125 3.21875 0.0625000000000007
v 3.125 5.40625 0.0625000000000007
v 3.125 7.28125 0.0625000000000007
v -3.125 7.28125 -0.0625000000000007
v 3.125 7.28125 -0.062499999999999306
v -3.125 5.40625 -0.0625000000000007
v 3.125 5.40625 -0.062499999999999306
v -3.125 3.21875 -0.0625000000000007
v 3.125 3.21875 -0.062499999999999306
v -3.125 -7.09375 -0.0625000000000007
v 3.125 -7.09375 -0.062499999999999306
v -3.125 -7.09375 0.062499999999999306
v 3.125 -7.09375 0.0625000000000007
vt 0 0.94140625
vt 0.1953125 0.94140625
vt 0.1953125 1
vt 0 1
vt 0.5859375 0.548828125
vt 0.390625 0.548828125
vt 0.390625 0.490234375
vt 0.5859375 0.490234375
vt 0.591796875 0.1953125
vt 0.591796875 0.390625
vt 0.587890625 0.390625
vt 0.587890625 0.1953125
vt 0.59375 0.78125
vt 0.59375 0.5859375
vt 0.59765625 0.5859375
vt 0.59765625 0.78125
vt 0.599609375 0.78125
vt 0.599609375 0.72265625
vt 0.603515625 0.72265625
vt 0.603515625 0.78125
vt 0.60546875 0.78125
vt 0.60546875 0.72265625
vt 0.609375 0.72265625
vt 0.609375 0.78125
vt 0.5859375 0.490234375
vt 0.390625 0.490234375
vt 0.390625 0.421875
vt 0.5859375 0.421875
vt 0.60546875 0.72265625
vt 0.60546875 0.654296875
vt 0.609375 0.654296875
vt 0.609375 0.72265625
vt 0 0.873046875
vt 0.1953125 0.873046875
vt 0.1953125 0.94140625
vt 0 0.94140625
vt 0.599609375 0.72265625
vt 0.599609375 0.654296875
vt 0.603515625 0.654296875
vt 0.603515625 0.72265625
vt 0.5859375 0.421875
vt 0.390625 0.421875
vt 0.390625 0.099609375
vt 0.5859375 0.099609375
vt 0.609375 0.33203125
vt 0.609375 0.654296875
vt 0.60546875 0.654296875
vt 0.60546875 0.33203125
vt 0 0.55078125
vt 0.1953125 0.55078125
vt 0.1953125 0.873046875
vt 0 0.873046875
vt 0.603515625 0.33203125
vt 0.603515625 0.654296875
vt 0.599609375 0.654296875
vt 0.599609375 0.33203125
vt 0 0.421875
vt 0.1953125 0.421875
vt 0.1953125 0.490234375
vt 0 0.490234375
vt 0 0.490234375
vt 0.1953125 0.490234375
vt 0.1953125 0.548828125
vt 0 0.548828125
vt 0.1953125 0.490234375
vt 0.390625 0.490234375
vt 0.390625 0.548828125
vt 0.1953125 0.548828125
vt 0.587890625 0.78125
vt 0.587890625 0.5859375
vt 0.591796875 0.5859375
vt 0.591796875 0.78125
vt 0.587890625 0.5859375
vt 0.587890625 0.390625
vt 0.591796875 0.390625
vt 0.591796875 0.5859375
vt 0.5859375 1
vt 0.390625 1
vt 0.390625 0.94140625
vt 0.5859375 0.94140625
vt 0.390625 1
vt 0.1953125 1
vt 0.1953125 0.94140625
vt 0.390625 0.94140625
vt 0.5859375 0.94140625
vt 0.390625 0.94140625
vt 0.390625 0.873046875
vt 0.5859375 0.873046875
vt 0.5859375 0.873046875
vt 0.390625 0.873046875
vt 0.390625 0.55078125
vt 0.5859375 0.55078125
vt 0.390625 0.873046875
vt 0.1953125 0.873046875
vt 0.1953125 0.55078125
vt 0.390625 0.55078125
vt 0.59765625 0.1953125
vt 0.59765625 0.390625
vt 0.59375 0.390625
vt 0.59375 0.1953125
vt 0.59765625 0.390625
vt 0.59765625 0.5859375
vt 0.59375 0.5859375
vt 0.59375 0.390625
vt 0 0.099609375
vt 0.1953125 0.099609375
vt 0.1953125 0.421875
vt 0 0.421875
vt 0.1953125 0.099609375
vt 0.390625 0.099609375
vt 0.390625 0.421875
vt 0.1953125 0.421875
vt 0.62109375 0.59375
vt 0.6171875 0.59375
vt 0.6171875 0.525390625
vt 0.62109375 0.525390625
vt 0.611328125 0.3984375
vt 0.615234375 0.3984375
vt 0.615234375 0.59375
vt 0.611328125 0.59375
vt 0.615234375 0.396484375
vt 0.611328125 0.396484375
vt 0.611328125 0.201171875
vt 0.615234375 0.201171875
vt 0.62109375 0.5234375
vt 0.6171875 0.5234375
vt 0.6171875 0.455078125
vt 0.62109375 0.455078125
vn 2.220446049250313e-16 0 -1
vn -2.220446049250313e-16 0 1
vn 0 1 0
vn 0 -1 0
vn 1 0 2.220446049250313e-16
vn -1 0 -2.220446049250313e-16
vn -2.220446049250313e-16 0 1
vn -1 0 -2.220446049250313e-16
vn 2.220446049250313e-16 0 -1
vn 1 0 2.220446049250313e-16
vn -2.220446049250313e-16 0 1
vn -1 0 -2.220446049250313e-16
vn 2.220446049250313e-16 0 -1
vn 1 0 2.220446049250313e-16
vn -2.220446049250313e-16 0 1
vn -2.220446049250313e-16 0 1
vn -2.220446049250313e-16 0 1
vn 0 1 0
vn 0 1 0
vn 2.220446049250313e-16 0 -1
vn 2.220446049250313e-16 0 -1
vn 2.220446049250313e-16 0 -1
vn 2.220446049250313e-16 0 -1
vn 2.220446049250313e-16 0 -1
vn 0 -1 0
vn 0 -1 0
vn -2.220446049250313e-16 0 1
vn -2.220446049250313e-16 0 1
vn 1 0 2.220446049250313e-16
vn 0 1 0
vn 0 -1 0
vn -1 0 -2.220446049250313e-16
usemtl m_c8e2863e-58ad-d1fe-c9df-0bba924e3cc4
f 13/1/1 26/2/1 24/3/1 2/4/1
f 6/5/2 22/6/2 21/7/2 10/8/2
f 2/9/3 24/10/3 22/11/3 6/12/3
f 8/13/4 32/14/4 30/15/4 4/16/4
f 6/17/5 10/18/5 13/19/5 2/20/5
f 3/21/6 12/22/6 11/23/6 7/24/6
f 10/25/7 21/26/7 20/27/7 14/28/7
f 12/29/8 16/30/8 15/31/8 11/32/8
f 17/33/9 28/34/9 26/35/9 13/36/9
f 10/37/10 14/38/10 17/39/10 13/40/10
f 14/41/11 20/42/11 32/43/11 8/44/11
f 9/45/12 15/46/12 16/47/12 5/48/12
f 4/49/13 30/50/13 28/51/13 17/52/13
f 4/53/14 17/54/14 14/55/14 8/56/14
f 15/57/15 18/58/15 19/59/15 11/60/15
f 11/61/16 19/62/16 1/63/16 7/64/16
f 19/65/17 21/66/17 22/67/17 1/68/17
f 7/69/18 1/70/18 23/71/18 3/72/18
f 1/73/19 22/74/19 24/75/19 23/76/19
f 3/77/20 23/78/20 25/79/20 12/80/20
f 23/81/21 24/82/21 26/83/21 25/84/21
f 12/85/22 25/86/22 27/87/22 16/88/22
f 16/89/23 27/90/23 29/91/23 5/92/23
f 27/93/24 28/94/24 30/95/24 29/96/24
f 5/97/25 29/98/25 31/99/25 9/100/25
f 29/101/26 30/102/26 32/103/26 31/104/26
f 9/105/27 31/106/27 18/107/27 15/108/27
f 31/109/28 32/110/28 20/111/28 18/112/28
f 25/113/29 19/114/29 18/115/29 27/116/29
f 20/117/30 28/118/30 27/119/30 18/120/30
f 26/121/31 21/122/31 19/123/31 25/124/31
f 21/125/32 26/126/32 28/127/32 20/128/32
o cuboid
v 3.5 5.6875 0.21875
v 3.5 5.6875 -0.21875
v 3.5 2.75 0.21875
v 3.5 2.75 -0.21875
v -3.5 5.6875 0.21875
v -3.5 5.6875 -0.21875
v -3.5 2.75 0.21875
v -3.5 2.75 -0.21875
v 2.859375 5.109375 0.21875
v -2.859375 5.109375 0.21875
v 2.859375 3.328125 0.21875
v -2.859375 3.328125 0.21875
v 2.859375 5.109375 -0.21875
v 2.859375 3.328125 -0.21875
v -2.859375 5.109375 -0.21875
v -2.859375 3.328125 -0.21875
v 2.90625 4.203125 0
v -2.890625 4.203125 0
v 2.90625 4.248429375 0.109375
v -2.890625 4.248429375 0.109375
v 2.90625 4.3125 0.045304375
v -2.890625 4.3125 0.045304375
v 2.90625 4.3125 -0.045304375
v -2.890625 4.3125 -0.045304375
v 2.90625 4.248429375 -0.109375
v -2.890625 4.248429375 -0.109375
v 2.90625 4.157820625 -0.109375
v -2.890625 4.157820625 -0.109375
v 2.90625 4.09375 -0.045304375
v -2.890625 4.09375 -0.045304375
v 2.90625 4.09375 0.045304375
v -2.890625 4.09375 0.045304375
v 2.90625 4.157820625 0.109375
v -2.890625 4.157820625 0.109375
v 0 3.0625 0
v 0 5.15625 0
v 0.045304375 3.0625 0.109375
v 0.045304375 5.15625 0.109375
v 0.109375 3.0625 0.045304375
v 0.109375 5.15625 0.045304375
v 0.109375 3.0625 -0.045304375
v 0.109375 5.15625 -0.045304375
v 0.045304375 3.0625 -0.109375
v 0.045304375 5.15625 -0.109375
v -0.045304375 3.0625 -0.109375
v -0.045304375 5.15625 -0.109375
v -0.109375 3.0625 -0.045304375
v -0.109375 5.15625 -0.045304375
v -0.109375 3.0625 0.045304375
v -0.109375 5.15625 0.045304375
v -0.045304375 3.0625 0.109375
v -0.045304375 5.15625 0.109375
vt 0.625 0.78125
vt 0.611328125 0.78125
vt 0.611328125 0.689453125
vt 0.625 0.689453125
vt 0.625 0.595703125
vt 0.625 0.6875
vt 0.611328125 0.6875
vt 0.611328125 0.595703125
vt 0.587890625 0.798828125
vt 0.806640625 0.798828125
vt 0.806640625 0.8125
vt 0.587890625 0.8125
vt 0.806640625 0.783203125
vt 0.806640625 0.796875
vt 0.587890625 0.796875
vt 0.587890625 0.783203125
vt 0.78662109375 0.98193359375
vt 0.78662109375 0.92626953125
vt 0.806640625 0.908203125
vt 0.806640625 1
vt 0.60791015625 0.98193359375
vt 0.78662109375 0.98193359375
vt 0.806640625 1
vt 0.587890625 1
vt 0.60791015625 0.92626953125
vt 0.60791015625 0.98193359375
vt 0.587890625 1
vt 0.587890625 0.908203125
vt 0.78662109375 0.92626953125
vt 0.60791015625 0.92626953125
vt 0.587890625 0.908203125
vt 0.806640625 0.908203125
vt 0.60791015625 0.88818359375
vt 0.78662109375 0.88818359375
vt 0.806640625 0.90625
vt 0.587890625 0.90625
vt 0.60791015625 0.83251953125
vt 0.60791015625 0.88818359375
vt 0.587890625 0.90625
vt 0.587890625 0.814453125
vt 0.78662109375 0.83251953125
vt 0.60791015625 0.83251953125
vt 0.587890625 0.814453125
vt 0.806640625 0.814453125
vt 0.78662109375 0.88818359375
vt 0.78662109375 0.83251953125
vt 0.806640625 0.814453125
vt 0.806640625 0.90625
vt 0.19921875 0.486328125
vt 0.19921875 0.4296875
vt 0.212890625 0.4296875
vt 0.212890625 0.486328125
vt 0.19921875 0.9375
vt 0.19921875 0.923828125
vt 0.37890625 0.923828125
vt 0.37890625 0.9375
vt 0.228515625 0.4296875
vt 0.228515625 0.486328125
vt 0.21484375 0.486328125
vt 0.21484375 0.4296875
vt 0.37890625 0.921875
vt 0.19921875 0.921875
vt 0.19921875 0.908203125
vt 0.37890625 0.908203125
vt 0.3833498046875 0.9375
vt 0.38134765625 0.9354978515625
vt 0.384765625 0.93408203125
vt 0.380859375 0.888671875
vt 0.380859375 0.890625
vt 0.19921875 0.890625
vt 0.19921875 0.888671875
vt 0.38818359375 0.9257322265625
vt 0.3861814453125 0.927734375
vt 0.384765625 0.92431640625
vt 0.3861814453125 0.9375
vt 0.3833498046875 0.9375
vt 0.384765625 0.93408203125
vt 0.380859375 0.904296875
vt 0.380859375 0.90625
vt 0.19921875 0.90625
vt 0.19921875 0.904296875
vt 0.3861814453125 0.927734375
vt 0.3833498046875 0.927734375
vt 0.384765625 0.92431640625
vt 0.38818359375 0.9354978515625
vt 0.3861814453125 0.9375
vt 0.384765625 0.93408203125
vt 0.19921875 0.88671875
vt 0.19921875 0.884765625
vt 0.380859375 0.884765625
vt 0.380859375 0.88671875
vt 0.3833498046875 0.927734375
vt 0.38134765625 0.9257322265625
vt 0.384765625 0.92431640625
vt 0.38818359375 0.9326662109375
vt 0.38818359375 0.9354978515625
vt 0.384765625 0.93408203125
vt 0.19921875 0.90234375
vt 0.19921875 0.900390625
vt 0.380859375 0.900390625
vt 0.380859375 0.90234375
vt 0.38134765625 0.9257322265625
vt 0.38134765625 0.9229005859375
vt 0.384765625 0.92431640625
vt 0.3861814453125 0.9306640625
vt 0.38818359375 0.9326662109375
vt 0.384765625 0.93408203125
vt 0.19921875 0.8828125
vt 0.19921875 0.880859375
vt 0.380859375 0.880859375
vt 0.380859375 0.8828125
vt 0.38134765625 0.9229005859375
vt 0.3833498046875 0.9208984375
vt 0.384765625 0.92431640625
vt 0.3833498046875 0.9306640625
vt 0.3861814453125 0.9306640625
vt 0.384765625 0.93408203125
vt 0.380859375 0.896484375
vt 0.380859375 0.8984375
vt 0.19921875 0.8984375
vt 0.19921875 0.896484375
vt 0.3833498046875 0.9208984375
vt 0.3861814453125 0.9208984375
vt 0.384765625 0.92431640625
vt 0.38134765625 0.9326662109375
vt 0.3833498046875 0.9306640625
vt 0.384765625 0.93408203125
vt 0.380859375 0.876953125
vt 0.380859375 0.87890625
vt 0.19921875 0.87890625
vt 0.19921875 0.876953125
vt 0.3861814453125 0.9208984375
vt 0.38818359375 0.9229005859375
vt 0.384765625 0.92431640625
vt 0.38134765625 0.9354978515625
vt 0.38134765625 0.9326662109375
vt 0.384765625 0.93408203125
vt 0.380859375 0.892578125
vt 0.380859375 0.89453125
vt 0.19921875 0.89453125
vt 0.19921875 0.892578125
vt 0.38818359375 0.9229005859375
vt 0.38818359375 0.9257322265625
vt 0.384765625 0.92431640625
vt 0.38818359375 0.9149900390625
vt 0.3861814453125 0.9169921875
vt 0.384765625 0.91357421875
vt 0.623046875 0.52734375
vt 0.625 0.52734375
vt 0.625 0.59375
vt 0.623046875 0.59375
vt 0.2357908203125 0.4794921875
vt 0.23779296875 0.4814943359375
vt 0.234375 0.48291015625
vt 0.38818359375 0.9121583984375
vt 0.38818359375 0.9149900390625
vt 0.384765625 0.91357421875
vt 0.6171875 0.38671875
vt 0.619140625 0.38671875
vt 0.619140625 0.453125
vt 0.6171875 0.453125
vt 0.23779296875 0.4814943359375
vt 0.23779296875 0.4843259765625
vt 0.234375 0.48291015625
vt 0.3861814453125 0.91015625
vt 0.38818359375 0.9121583984375
vt 0.384765625 0.91357421875
vt 0.623046875 0.458984375
vt 0.625 0.458984375
vt 0.625 0.525390625
vt 0.623046875 0.525390625
vt 0.23779296875 0.4843259765625
vt 0.2357908203125 0.486328125
vt 0.234375 0.48291015625
vt 0.3833498046875 0.91015625
vt 0.3861814453125 0.91015625
vt 0.384765625 0.91357421875
vt 0.6171875 0.318359375
vt 0.619140625 0.318359375
vt 0.619140625 0.384765625
vt 0.6171875 0.384765625
vt 0.2357908203125 0.486328125
vt 0.2329591796875 0.486328125
vt 0.234375 0.48291015625
vt 0.38134765625 0.9121583984375
vt 0.3833498046875 0.91015625
vt 0.384765625 0.91357421875
vt 0.625 0.390625
vt 0.626953125 0.390625
vt 0.626953125 0.45703125
vt 0.625 0.45703125
vt 0.2329591796875 0.486328125
vt 0.23095703125 0.4843259765625
vt 0.234375 0.48291015625
vt 0.38134765625 0.9149900390625
vt 0.38134765625 0.9121583984375
vt 0.384765625 0.91357421875
vt 0.62109375 0.38671875
vt 0.623046875 0.38671875
vt 0.623046875 0.453125
vt 0.62109375 0.453125
vt 0.23095703125 0.4843259765625
vt 0.23095703125 0.4814943359375
vt 0.234375 0.48291015625
vt 0.3833498046875 0.9169921875
vt 0.38134765625 0.9149900390625
vt 0.384765625 0.91357421875
vt 0.625 0.322265625
vt 0.626953125 0.322265625
vt 0.626953125 0.388671875
vt 0.625 0.388671875
vt 0.23095703125 0.4814943359375
vt 0.2329591796875 0.4794921875
vt 0.234375 0.48291015625
vt 0.3861814453125 0.9169921875
vt 0.3833498046875 0.9169921875
vt 0.384765625 0.91357421875
vt 0.62109375 0.318359375
vt 0.623046875 0.318359375
vt 0.623046875 0.384765625
vt 0.62109375 0.384765625
vt 0.2329591796875 0.4794921875
vt 0.2357908203125 0.4794921875
vt 0.234375 0.48291015625
vn 1 0 0
vn -1 0 0
vn 0 1 0
vn 0 -1 0
vn 0 0 1
vn 0 0 1
vn 0 0 1
vn 0 0 1
vn 0 0 -1
vn 0 0 -1
vn 0 0 -1
vn 0 0 -1
vn 1 0 0
vn 0 -1 0
vn -1 0 0
vn 0 1 0
vn 1 0 0
vn 0 0.7071067811865475 0.7071067811865476
vn -1 0 0
vn 1 0 0
vn 0 1 0
vn -1 0 0
vn 1 0 0
vn 0 0.7071067811865475 -0.7071067811865476
vn -1 0 0
vn 1 0 0
vn 0 0 -1
vn -1 0 0
vn 1 0 0
vn 0 -0.7071067811865476 -0.7071067811865476
vn -1 0 0
vn 1 0 0
vn 0 -1 0
vn -1 0 0
vn 1 0 0
vn 0 -0.7071067811865476 0.7071067811865476
vn -1 0 0
vn 1 0 0
vn 0 0 1
vn -1 0 0
vn 0 -1 0
vn 0.7071067811865476 0 0.7071067811865476
vn 0 1 0
vn 0 -1 0
vn 1 0 0
vn 0 1 0
vn 0 -1 0
vn 0.7071067811865476 0 -0.7071067811865476
vn 0 1 0
vn 0 -1 0
vn 0 0 -1
vn 0 1 0
vn 0 -1 0
vn -0.7071067811865476 0 -0.7071067811865476
vn 0 1 0
vn 0 -1 0
vn -1 0 0
vn 0 1 0
vn 0 -1 0
vn -0.7071067811865476 0 0.7071067811865476
vn 0 1 0
vn 0 -1 0
vn 0 0 1
vn 0 1 0
usemtl m_c8e2863e-58ad-d1fe-c9df-0bba924e3cc4
f 34/129/33 33/130/33 35/131/33 36/132/33
f 39/133/34 37/134/34 38/135/34 40/136/34
f 37/137/35 33/138/35 34/139/35 38/140/35
f 36/141/36 35/142/36 39/143/36 40/144/36
f 41/145/37 43/146/37 35/147/37 33/148/37
f 42/149/38 41/150/38 33/151/38 37/152/38
f 44/153/39 42/154/39 37/155/39 39/156/39
f 43/157/40 44/158/40 39/159/40 35/160/40
f 45/161/41 47/162/41 38/163/41 34/164/41
f 46/165/42 45/166/42 34/167/42 36/168/42
f 48/169/43 46/170/43 36/171/43 40/172/43
f 47/173/44 48/174/44 40/175/44 38/176/44
f 42/177/45 44/178/45 48/179/45 47/180/45
f 42/181/46 47/182/46 45/183/46 41/184/46
f 43/185/47 41/186/47 45/187/47 46/188/47
f 46/189/48 48/190/48 44/191/48 43/192/48
f 53/193/49 51/194/49 49/195/49
f 51/196/50 53/197/50 54/198/50 52/199/50
f 52/200/51 54/201/51 50/202/51
f 55/203/52 53/204/52 49/205/52
f 53/206/53 55/207/53 56/208/53 54/209/53
f 54/210/54 56/211/54 50/212/54
f 57/213/55 55/214/55 49/215/55
f 55/216/56 57/217/56 58/218/56 56/219/56
f 56/220/57 58/221/57 50/222/57
f 59/223/58 57/224/58 49/225/58
f 57/226/59 59/227/59 60/228/59 58/229/59
f 58/230/60 60/231/60 50/232/60
f 61/233/61 59/234/61 49/235/61
f 59/236/62 61/237/62 62/238/62 60/239/62
f 60/240/63 62/241/63 50/242/63
f 63/243/64 61/244/64 49/245/64
f 61/246/65 63/247/65 64/248/65 62/249/65
f 62/250/66 64/251/66 50/252/66
f 65/253/67 63/254/67 49/255/67
f 63/256/68 65/257/68 66/258/68 64/259/68
f 64/260/69 66/261/69 50/262/69
f 51/263/70 65/264/70 49/265/70
f 65/266/71 51/267/71 52/268/71 66/269/71
f 66/270/72 52/271/72 50/272/72
f 71/273/73 69/274/73 67/275/73
f 69/276/74 71/277/74 72/278/74 70/279/74
f 70/280/75 72/281/75 68/282/75
f 73/283/76 71/284/76 67/285/76
f 71/286/77 73/287/77 74/288/77 72/289/77
f 72/290/78 74/291/78 68/292/78
f 75/293/79 73/294/79 67/295/79
f 73/296/80 75/297/80 76/298/80 74/299/80
f 74/300/81 76/301/81 68/302/81
f 77/303/82 75/304/82 67/305/82
f 75/306/83 77/307/83 78/308/83 76/309/83
f 76/310/84 78/311/84 68/312/84
f 79/313/85 77/314/85 67/315/85
f 77/316/86 79/317/86 80/318/86 78/319/86
f 78/320/87 80/321/87 68/322/87
f 81/323/88 79/324/88 67/325/88
f 79/326/89 81/327/89 82/328/89 80/329/89
f 80/330/90 82/331/90 68/332/90
f 83/333/91 81/334/91 67/335/91
f 81/336/92 83/337/92 84/338/92 82/339/92
f 82/340/93 84/341/93 68/342/93
f 69/343/94 83/344/94 67/345/94
f 83/346/95 69/347/95 70/348/95 84/349/95
f 84/350/96 70/351/96 68/352/96