# Made in Blockbench 5.0.4
mtllib Shelfs.mtl

o cuboid
v 0 1.375 2.84375
v 0 1.375 -0.03125
v 0.03125 1.25 2.875
v 0.03125 1.25 -0.0625
v -1.75 1.375 2.84375
v -1.75 1.375 -0.03125
v -1.78125 1.25 2.875
v -1.78125 1.25 -0.0625
vt 0.59765625 0.6328125
vt 0.23828125 0.6328125
vt 0.234375 0.6171875
vt 0.6015625 0.6171875
vt 0.3671875 0.59375
vt 0.36328125 0.609375
vt 0.00390625 0.609375
vt 0 0.59375
vt 0.234375 0.640625
vt 0.453125 0.640625
vt 0.453125 1
vt 0.234375 1
vt 0.2265625 0.6328125
vt 0.2265625 1
vt 0 1
vt 0 0.6328125
vt 0.6015625 0.59375
vt 0.59765625 0.609375
vt 0.37890625 0.609375
vt 0.375 0.59375
vt 0.22265625 0.5859375
vt 0.00390625 0.5859375
vt 0 0.5703125
vt 0.2265625 0.5703125
vn 0.9701425001453319 0.24253562503633297 0
vn -0.9701425001453319 0.24253562503633297 0
vn 0 1 0
vn 0 -1 0
vn 0 0.24253562503633297 0.9701425001453319
vn 0 0.24253562503633297 -0.9701425001453319
usemtl m_ecd761b4-d084-5e31-7316-5be70b1f9f80
f 2/1/1 1/2/1 3/3/1 4/4/1
f 7/5/2 5/6/2 6/7/2 8/8/2
f 5/9/3 1/10/3 2/11/3 6/12/3
f 4/13/4 3/14/4 7/15/4 8/16/4
f 3/17/5 1/18/5 5/19/5 7/20/5
f 6/21/6 2/22/6 4/23/6 8/24/6