# Made in Blockbench 5.0.4
mtllib Fishes.mtl

o Fish2
v 0 0.34375 0
v 0.046875 0.34375 0
v 0.046875 -0.03125 0
v 0 -0.03125 0
v -0.046875 -0.03125 0
v -0.046875 0.34375 0
v 0.046875 0.15625 0
v 0.046875 0.15625 -0.1875
v -0.046875 0.15625 -0.1875
v -0.046875 0.15625 0
v -0.046875 0.15625 0.1875
v 0.046875 0.15625 0.1875
v 0 0.25 0.1875
v 0.046875 0.25 0.1875
v 0.046875 0.25 0
v 0.046875 0.25 -0.1875
v 0 0.25 -0.1875
v -0.046875 0.25 -0.1875
v -0.046875 0.25 0
v -0.046875 0.25 0.1875
v 0.046875 0.0625 0.1875
v 0 0.0625 0.1875
v -0.046875 0.0625 0.1875
v -0.046875 0.0625 0
v -0.046875 0.0625 -0.1875
v 0 0.0625 -0.1875
v 0.046875 0.0625 -0.1875
v 0.046875 0.0625 0
v 0.046875 0.25 0.09375
v 0.046875 0.34375 0.09375
v 0 0.34375 0.09375
v -0.046875 0.34375 0.09375
v -0.046875 0.25 0.09375
v -0.046875 0.15625 0.09375
v -0.046875 0.0625 0.09375
v -0.046875 -0.03125 0.09375
v 0 -0.03125 0.09375
v 0.046875 -0.03125 0.09375
v 0.046875 0.0625 0.09375
v 0.046875 0.15625 0.09375
v 0.046875 0.25 -0.09375
v 0.046875 0.34375 -0.09375
v 0 0.34375 -0.09375
v -0.046875 0.34375 -0.09375
v -0.046875 0.25 -0.09375
v -0.046875 0.15625 -0.09375
v -0.046875 0.0625 -0.09375
v -0.046875 -0.03125 -0.09375
v 0 -0.03125 -0.09375
v 0.046875 -0.03125 -0.09375
v 0.046875 0.0625 -0.09375
v 0.046875 0.15625 -0.09375
v 0 0.25 0.1875
v 0 0.34375 0.09375
v 0 0.25 -0.1875
v 0 0.34375 -0.09375
v 0 0.40625 -0.078125
v 0 0.3125 -0.171875
v 0 0.40625 0.015625
v 0 0.40625 0.109375
v 0 0.3125 0.203125
v 0 0.15625 0.25
v -0.03125 0.25 0.24999875
v 0 0.25 0.25
v -0.03125 0.15625 0.24999875
v 0.03125 0.15625 0.25000125
v 0.03125 0.25 0.25000125
v 0.03125 0.0625 0.25000125
v 0 0.0625 0.25
v -0.03125 0.0625 0.24999875
v 0 -0.03125 0.09375
v 0 0.0625 0.1875
v 0 0.015625 0.140625
v -0.046875 0.015625 0.140625
v 0.046875 0.015625 0.140625
v 0 0.15625 -0.25
v 0.046875 0.203125 -0.25
v 0 0.203125 -0.25
v 0.046875 0.15625 -0.25
v -0.046875 0.15625 -0.25
v -0.046875 0.203125 -0.25
v 0 0.09375 -0.25
v 0.046875 0.09375 -0.25
v -0.046875 0.09375 -0.25
v 0 0.09375 0.203125
v 0 -0.015625 0.1875
v 0 -0.03125 0.078125
v 0 0.09375 0.078125
v 0 0.09375 0.140625
v 0 -0.03125 0.140625
v 0 0.03125 0.140625
v 0 0.03125 0.078125
v 0 0.03125 0.203125
v 0 0.03125 0.015625
v 0 -0.03125 0.015625
v 0 -0.046875 0.03125
v 0 -0.046875 0.078125
v 0 -0.046875 0.09375
v -0.046875 0.109375 -0.046875
v -0.046875 0.140625 -0.046875
v -0.09375 0.078125 0.034315
v -0.09375 0.171875 0.034315
v -0.046875 0.125 -0.046875
v -0.0859375 0.125 0.020783125
v -0.0703125 0.125 -0.00628
v -0.0703125 0.171875 -0.00628
v -0.0703125 0.078125 -0.00628
v 0.046875 0.140625 -0.046875
v 0.046875 0.109375 -0.046875
v 0.09375 0.171875 0.034315
v 0.09375 0.078125 0.034315
v 0.046875 0.125 -0.046875
v 0.0859375 0.125 0.020783125
v 0.0703125 0.125 -0.00628
v 0.0703125 0.078125 -0.00628
v 0.0703125 0.171875 -0.00628
v -0.001363125 0.182291875 0.25003
v -0.001363125 0.130208125 0.25003
v 0.0054525 0.234375 0.40613125
v 0.0054525 0.078125 0.40613125
v -0.001363125 0.15625 0.25003
v 0.00431625 0.15625 0.380114375
v 0.002044375 0.15625 0.328080625
v 0.002044375 0.078125 0.328080625
v 0.002044375 0.234375 0.328080625
vt 0.13329375 0.90625
vt 0.08641875 0.90625
vt 0.08641875 0.859375
vt 0.13329375 0.859375
vt 0.13233125 0.640625
vt 0.17920625 0.640625
vt 0.17920625 0.6875
vt 0.13233125 0.6875
vt 0.3359375 0.703125
vt 0.3359375 0.65625
vt 0.359375 0.65625
vt 0.359375 0.703125
vt 0.359375 0.578125
vt 0.359375 0.625
vt 0.3359375 0.625
vt 0.3359375 0.578125
vt 0.265625 0.546875
vt 0.265625 0.5
vt 0.28125 0.5
vt 0.28125 0.546875
vt 0.40625 0.5078125
vt 0.40625 0.4765625
vt 0.4296875 0.4765625
vt 0.4296875 0.5078125
vt 0.3125 0.703125
vt 0.3125 0.65625
vt 0.3359375 0.65625
vt 0.3359375 0.703125
vt 0.4296875 0.5078125
vt 0.4296875 0.4765625
vt 0.453125 0.4765625
vt 0.453125 0.5078125
vt 0.3359375 0.578125
vt 0.3359375 0.625
vt 0.3125 0.625
vt 0.3125 0.578125
vt 0.25 0.546875
vt 0.25 0.5
vt 0.265625 0.5
vt 0.265625 0.546875
vt 0.22704375 0.90625
vt 0.18016875 0.90625
vt 0.18016875 0.859375
vt 0.22704375 0.859375
vt 0.03858125 0.640625
vt 0.08545625 0.640625
vt 0.08545625 0.6875
vt 0.03858125 0.6875
vt 0.22704375 0.953125
vt 0.18016875 0.953125
vt 0.18016875 0.90625
vt 0.22704375 0.90625
vt 0.4296875 0.5078125
vt 0.4296875 0.53125
vt 0.40625 0.53125
vt 0.40625 0.5078125
vt 0.453125 0.5078125
vt 0.453125 0.53125
vt 0.4296875 0.53125
vt 0.4296875 0.5078125
vt 0.03858125 0.6875
vt 0.08545625 0.6875
vt 0.08545625 0.734375
vt 0.03858125 0.734375
vt 0.13233125 0.6875
vt 0.17920625 0.6875
vt 0.17920625 0.734375
vt 0.13233125 0.734375
vt 0.265625 0.546875
vt 0.265625 0.59375
vt 0.25 0.59375
vt 0.25 0.546875
vt 0.28125 0.546875
vt 0.28125 0.59375
vt 0.265625 0.59375
vt 0.265625 0.546875
vt 0.13329375 0.953125
vt 0.08641875 0.953125
vt 0.08641875 0.90625
vt 0.13329375 0.90625
vt 0.13329375 1
vt 0.08641875 1
vt 0.08641875 0.953125
vt 0.13329375 0.953125
vt 0.13233125 0.734375
vt 0.17920625 0.734375
vt 0.17920625 0.78125
vt 0.13233125 0.78125
vt 0.13233125 0.59375
vt 0.17920625 0.59375
vt 0.17920625 0.640625
vt 0.13233125 0.640625
vt 0.13329375 0.859375
vt 0.08641875 0.859375
vt 0.08641875 0.8125
vt 0.13329375 0.8125
vt 0.22608125 0.734375
vt 0.17920625 0.734375
vt 0.17920625 0.6875
vt 0.22608125 0.6875
vt 0.22608125 0.6875
vt 0.17920625 0.6875
vt 0.17920625 0.640625
vt 0.22608125 0.640625
vt 0.03954375 0.859375
vt 0.08641875 0.859375
vt 0.08641875 0.90625
vt 0.03954375 0.90625
vt 0.03954375 0.90625
vt 0.08641875 0.90625
vt 0.08641875 0.953125
vt 0.03954375 0.953125
vt 0.13329375 0.953125
vt 0.18016875 0.953125
vt 0.18016875 1
vt 0.13329375 1
vt 0.359375 0.703125
vt 0.359375 0.75
vt 0.3359375 0.75
vt 0.3359375 0.703125
vt 0.3359375 0.703125
vt 0.3359375 0.75
vt 0.3125 0.75
vt 0.3125 0.703125
vt 0.13233125 0.78125
vt 0.08545625 0.78125
vt 0.08545625 0.734375
vt 0.13233125 0.734375
vt 0.13233125 0.734375
vt 0.08545625 0.734375
vt 0.08545625 0.6875
vt 0.13233125 0.6875
vt 0.13233125 0.6875
vt 0.08545625 0.6875
vt 0.08545625 0.640625
vt 0.13233125 0.640625
vt 0.13233125 0.640625
vt 0.08545625 0.640625
vt 0.08545625 0.59375
vt 0.13233125 0.59375
vt 0.3125 0.578125
vt 0.3125 0.53125
vt 0.3359375 0.53125
vt 0.3359375 0.578125
vt 0.3359375 0.578125
vt 0.3359375 0.53125
vt 0.359375 0.53125
vt 0.359375 0.578125
vt 0.13329375 0.8125
vt 0.18016875 0.8125
vt 0.18016875 0.859375
vt 0.13329375 0.859375
vt 0.13329375 0.859375
vt 0.18016875 0.859375
vt 0.18016875 0.90625
vt 0.13329375 0.90625
vt 0.13329375 0.90625
vt 0.18016875 0.90625
vt 0.18016875 0.953125
vt 0.13329375 0.953125
vt 0.453125 0.65625
vt 0.4296875 0.65625
vt 0.4296875 0.5899593750000001
vt 0.453125 0.5899593750000001
vt 0.18016875 1
vt 0.18016875 0.953125
vt 0.22704375 0.953125
vt 0.03858125 0.734375
vt 0.08545625 0.734375
vt 0.08545625 0.78125
vt 0.46875 0.6875
vt 0.46875 0.75
vt 0.40625 0.75
vt 0.40625 0.6875
vt 0.22704375 0.859375
vt 0.18016875 0.859375
vt 0.18016875 0.8125
vt 0.08545625 0.640625
vt 0.03858125 0.640625
vt 0.08545625 0.59375
vt 0.0234375 0.5506656249999999
vt 0.0234375 0.517521875
vt 0.046875 0.517521875
vt 0.046875 0.5506656249999999
vt 0.17920625 0.640625
vt 0.20264375 0.6171875
vt 0.22608125 0.640625
vt 0.08641875 0.859375
vt 0.06298125 0.8359375
vt 0.08641875 0.8125
vt 0.484375 1
vt 0.4609375 1
vt 0.4609375 0.933709375
vt 0.484375 0.933709375
vt 0.08641875 0.953125
vt 0.08641875 1
vt 0.03954375 0.953125
vt 0.17920625 0.78125
vt 0.17920625 0.734375
vt 0.22608125 0.734375
vt 0.4375 0.933709375
vt 0.4609375 0.933709375
vt 0.4609375 1
vt 0.4375 1
vt 0.40625 0.5899593750000001
vt 0.4296875 0.5899593750000001
vt 0.4296875 0.65625
vt 0.40625 0.65625
vt 0.1677725 0.53125
vt 0.19539375 0.5625
vt 0.1291025 0.5625
vt 0.10148125 0.53125
vt 0.37109375 0.46875
vt 0.36328125 0.5
vt 0.31640625 0.5
vt 0.32421875 0.46875
vt 0.55078125 0.59375
vt 0.55859375 0.625
vt 0.51171875 0.625
vt 0.50390625 0.59375
vt 0.509234375 0.84375
vt 0.5023696875 0.875
vt 0.443890625 0.875
vt 0.4429428125 0.84375
vt 0.5390625 0.96875
vt 0.5546875 0.96875
vt 0.5546875 1
vt 0.53125 1
vt 0.25829375 0.6875
vt 0.25829375 0.734375
vt 0.22608125 0.734375
vt 0.22608125 0.6875
vt 0.00733125 0.953125
vt 0.00733125 0.90625
vt 0.03954375 0.90625
vt 0.03954375 0.953125
vt 0.5546875 0.96875
vt 0.5703125 0.96875
vt 0.578125 1
vt 0.5546875 1
vt 0.5703125 0.9375
vt 0.5546875 0.9375
vt 0.5546875 0.90625
vt 0.578125 0.90625
vt 0.00733125 0.90625
vt 0.00733125 0.859375
vt 0.03954375 0.859375
vt 0.03954375 0.90625
vt 0.25829375 0.640625
vt 0.25829375 0.6875
vt 0.22608125 0.6875
vt 0.22608125 0.640625
vt 0.5546875 0.9375
vt 0.5390625 0.9375
vt 0.53125 0.90625
vt 0.5546875 0.90625
vt 0 0.5506656249999999
vt 0 0.517521875
vt 0.0234375 0.517521875
vt 0.0234375 0.5506656249999999
vt 0.18828125 0.48828125
vt 0.21796875 0.49531250000000004
vt 0.18828125 0.45703125
vt 0.0234375 0.484375
vt 0.0234375 0.517521875
vt 0 0.517521875
vt 0 0.484375
vt 0.17920625 0.59375
vt 0.20264375 0.6171875
vt 0.17920625 0.640625
vt 0.046875 0.484375
vt 0.046875 0.517521875
vt 0.0234375 0.517521875
vt 0.0234375 0.484375
vt 0.03954375 0.859375
vt 0.06298125 0.8359375
vt 0.08641875 0.859375
vt 0.5 0.6796875
vt 0.5234375 0.6796875
vt 0.5234375 0.71875
vt 0.5 0.71875
vt 0.25829375 0.90625
vt 0.25829375 0.9296875
vt 0.22704375 0.953125
vt 0.22704375 0.90625
vt 0.00733125 0.7109375
vt 0.00733125 0.6875
vt 0.03858125 0.6875
vt 0.03858125 0.734375
vt 0.5234375 0.6796875
vt 0.546875 0.6796875
vt 0.546875 0.71875
vt 0.5234375 0.71875
vt 0.25829375 0.875
vt 0.25829375 0.90625
vt 0.22704375 0.90625
vt 0.22704375 0.859375
vt 0.5234375 0.5505625000000001
vt 0.5 0.5505625000000001
vt 0.5 0.515625
vt 0.5234375 0.515625
vt 0.546875 0.5505625000000001
vt 0.5234375 0.5505625000000001
vt 0.5234375 0.515625
vt 0.546875 0.515625
vt 0.00733125 0.6875
vt 0.00733125 0.65625
vt 0.03858125 0.640625
vt 0.03858125 0.6875
vt 0.34375 1
vt 0.34375 0.96875
vt 0.375 0.96875
vt 0.375 1
vt 0.375 1
vt 0.375 0.96875
vt 0.40625 0.96875
vt 0.40625 1
vt 0.375 0.9375
vt 0.375 0.96875
vt 0.34375 0.96875
vt 0.34375 0.9375
vt 0.3984375 0.9453125
vt 0.40625 0.96875
vt 0.375 0.96875
vt 0.375 0.9375
vt 0.34375 0.96875
vt 0.3125 0.96875
vt 0.3125 0.9375
vt 0.34375 0.9375
vt 0.3125 0.9375
vt 0.3203125 0.9296875
vt 0.34375 0.9296875
vt 0.34375 0.9375
vt 0.34375 0.9375
vt 0.3515625 0.9296875
vt 0.375 0.9375
vt 0.34375 0.9296875
vt 0.3515625 0.9296875
vt 0.34375 0.9375
vt 0.140625 0.484375
vt 0.1171875 0.5
vt 0.1171875 0.4765625
vt 0.140625 0.4765625
vt 0.140625 0.4765625
vt 0.1171875 0.4765625
vt 0.1171875 0.453125
vt 0.140625 0.46875
vt 0.1015625 0.4765625
vt 0.1171875 0.4765625
vt 0.1171875 0.5
vt 0.09375 0.5
vt 0.09375 0.453125
vt 0.1171875 0.453125
vt 0.1171875 0.4765625
vt 0.1015625 0.4765625
vt 0.5 0.78125
vt 0.5234375 0.765625
vt 0.5234375 0.7890625
vt 0.5 0.7890625
vt 0.5 0.7890625
vt 0.5234375 0.7890625
vt 0.5234375 0.8125
vt 0.5 0.796875
vt 0.5390625 0.7890625
vt 0.5234375 0.7890625
vt 0.5234375 0.765625
vt 0.546875 0.765625
vt 0.546875 0.8125
vt 0.5234375 0.8125
vt 0.5234375 0.7890625
vt 0.5390625 0.7890625
vt 0.3203125 0.822915625
vt 0.359375 0.796875
vt 0.359375 0.8359375
vt 0.3203125 0.8359375
vt 0.3203125 0.8359375
vt 0.359375 0.8359375
vt 0.359375 0.875
vt 0.3203125 0.848959375
vt 0.38541875 0.8359375
vt 0.359375 0.8359375
vt 0.359375 0.796875
vt 0.3984375 0.796875
vt 0.3984375 0.875
vt 0.359375 0.875
vt 0.359375 0.8359375
vt 0.38541875 0.8359375
vn 1 0 0
vn -1 0 0
vn 0 1 0
vn 0 -1 0
vn -0.00003999999996826205 0 0.9999999992
vn 0 0 -1
vn 0 1 0
vn 0 0 -1
vn 0 -1 0
vn -0.00003999999996826205 0 0.9999999992
vn 1 0 0
vn -1 0 0
vn 1 0 0
vn 0 0 -1
vn 0 0 -1
vn -1 0 0
vn -1 0 0
vn -0.00003999999996826205 0 0.9999999992
vn -0.00003999999996826205 0 0.9999999992
vn 1 0 0
vn 1 0 0
vn -1 0 0
vn -1 0 0
vn 1 0 0
vn -1 0 0
vn -1 0 0
vn 1 0 0
vn 1 0 0
vn 1 0 0
vn 0 1 0
vn 0 1 0
vn -1 0 0
vn -1 0 0
vn -1 0 0
vn -1 0 0
vn 0 -1 0
vn 0 -1 0
vn 1 0 0
vn 1 0 0
vn 1 0 0
vn 0 0.7071067811865476 -0.7071067811865476
vn 1 0 0
vn -1 0 0
vn 0 -0.7071067811865476 -0.7071067811865476
vn 1 0 0
vn -1 0 0
vn 0 -0.7071067811865476 0.7071067811865476
vn -1 0 0
vn 1 0 0
vn 0 0.7071067811865476 0.7071067811865476
vn 1 0 0
vn -1 0 0
vn 0 0.7071067811865476 0.7071067811865476
vn 0 0.7071067811865476 -0.7071067811865476
vn -1 0 0
vn 1 0 0
vn -1 0 0
vn 1 0 0
vn 0 1 0
vn -0.9701413587689871 0 0.2425401904960567
vn 0.9701436414572243 0 0.24253105974311118
vn 0 1 0
vn 0 -1 0
vn 0.9701436414572243 0 0.24253105974311118
vn -0.9701413587689871 0 0.2425401904960567
vn 0 -1 0
vn 0 -0.7071067811865476 0.7071067811865476
vn -1 0 0
vn 0 -0.7071067811865476 0.7071067811865476
vn -1 0 0
vn 0 -0.7071067811865476 0.7071067811865476
vn 1 0 0
vn 0 0.8 -0.6
vn 1 0 0
vn -1 0 0
vn 0 0.8 -0.6
vn 1 0 0
vn 0 -0.8944271909999161 -0.44721359549995804
vn 0 -0.8944271909999161 -0.44721359549995804
vn -1 0 0
vn -1 0 0
vn -1 0 0
vn -1 0 0
vn -1 0 0
vn -1 0 0
vn -1 0 0
vn -1 0 0
vn -1 0 0
vn 0.8660257195044778 0 0.4999994531564527
vn 0.8660257195044778 0 0.4999994531564527
vn 0.8660240528288458 0 0.5000023399164255
vn 0.8660257195044778 0 0.4999994531564527
vn -0.8660257195044778 0 0.4999994531564527
vn -0.8660257195044778 0 0.4999994531564527
vn -0.8660240528288458 0 0.5000023399164255
vn -0.8660257195044778 0 0.4999994531564527
vn -0.999048368768802 0 0.043616016099546816
vn -0.999048368768802 0 0.043616016099546816
vn -0.999048194462752 0 0.04362000849054824
vn -0.9990480201408083 0 0.04362400087945987
usemtl m_d7d0e3d8-a2c9-d4f5-e2ec-2f5f457edefd
f 7/1/1 40/2/1 39/3/1 28/4/1
f 24/5/2 35/6/2 34/7/2 10/8/2
f 1/9/3 31/10/3 30/11/3 2/12/3
f 3/13/4 38/14/4 37/15/4 4/16/4
f 62/17/5 69/18/5 68/19/5 66/20/5
f 79/21/6 83/22/6 82/23/6 76/24/6
f 6/25/7 32/26/7 31/27/7 1/28/7
f 76/29/8 82/30/8 84/31/8 80/32/8
f 4/33/9 37/34/9 36/35/9 5/36/9
f 65/37/10 70/38/10 69/39/10 62/40/10
f 8/41/11 52/42/11 51/43/11 27/44/11
f 25/45/12 47/46/12 46/47/12 9/48/12
f 16/49/13 41/50/13 52/51/13 8/52/13
f 76/53/14 78/54/14 77/55/14 79/56/14
f 80/57/15 81/58/15 78/59/15 76/60/15
f 9/61/16 46/62/16 45/63/16 18/64/16
f 10/65/17 34/66/17 33/67/17 19/68/17
f 62/69/18 64/70/18 63/71/18 65/72/18
f 66/73/19 67/74/19 64/75/19 62/76/19
f 15/77/20 29/78/20 40/79/20 7/80/20
f 2/81/21 30/82/21 29/83/21 15/84/21
f 19/85/22 33/86/22 32/87/22 6/88/22
f 5/89/23 36/90/23 35/91/23 24/92/23
f 28/93/24 39/94/24 38/95/24 3/96/24
f 20/97/25 33/98/25 34/99/25 11/100/25
f 11/101/26 34/102/26 35/103/26 23/104/26
f 21/105/27 39/106/27 40/107/27 12/108/27
f 12/109/28 40/110/28 29/111/28 14/112/28
f 15/113/29 41/114/29 42/115/29 2/116/29
f 2/117/30 42/118/30 43/119/30 1/120/30
f 1/121/31 43/122/31 44/123/31 6/124/31
f 6/125/32 44/126/32 45/127/32 19/128/32
f 19/129/33 45/130/33 46/131/33 10/132/33
f 10/133/34 46/134/34 47/135/34 24/136/34
f 24/137/35 47/138/35 48/139/35 5/140/35
f 5/141/36 48/142/36 49/143/36 4/144/36
f 4/145/37 49/146/37 50/147/37 3/148/37
f 3/149/38 50/150/38 51/151/38 28/152/38
f 28/153/39 51/154/39 52/155/39 7/156/39
f 7/157/40 52/158/40 41/159/40 15/160/40
f 44/161/41 56/162/41 55/163/41 18/164/41
f 42/165/42 41/166/42 16/167/42
f 18/168/43 45/169/43 44/170/43
f 48/171/44 25/172/44 27/173/44 50/174/44
f 27/175/45 51/176/45 50/177/45
f 47/178/46 25/179/46 48/180/46
f 72/181/47 73/182/47 75/183/47 21/184/47
f 35/185/48 74/186/48 23/187/48
f 39/188/49 75/189/49 38/190/49
f 30/191/50 54/192/50 53/193/50 14/194/50
f 29/195/51 30/196/51 14/197/51
f 32/198/52 33/199/52 20/200/52
f 20/201/53 53/202/53 54/203/53 32/204/53
f 16/205/54 55/206/54 56/207/54 42/208/54
f 56/209/55 57/210/55 58/211/55 55/212/55
f 43/213/56 57/214/56 59/215/56 1/216/56
f 31/217/57 60/218/57 59/219/57 1/220/57
f 54/221/58 60/222/58 61/223/58 53/224/58
f 63/225/59 64/226/59 13/227/59 20/228/59
f 65/229/60 63/230/60 20/231/60 11/232/60
f 67/233/61 66/234/61 12/235/61 14/236/61
f 64/237/62 67/238/62 14/239/62 13/240/62
f 68/241/63 69/242/63 22/243/63 21/244/63
f 66/245/64 68/246/64 21/247/64 12/248/64
f 70/249/65 65/250/65 11/251/65 23/252/65
f 69/253/66 70/254/66 23/255/66 22/256/66
f 23/257/67 74/258/67 73/259/67 72/260/67
f 61/261/68 13/262/68 64/263/68
f 71/264/69 73/265/69 74/266/69 36/267/69
f 36/268/70 74/269/70 35/270/70
f 38/271/71 75/272/71 73/273/71 71/274/71
f 21/275/72 75/276/72 39/277/72
f 77/278/73 78/279/73 17/280/73 16/281/73
f 79/282/74 77/283/74 16/284/74 8/285/74
f 81/286/75 80/287/75 9/288/75 18/289/75
f 78/290/76 81/291/76 18/292/76 17/293/76
f 83/294/77 79/295/77 8/296/77 27/297/77
f 82/298/78 83/299/78 27/300/78 26/301/78
f 84/302/79 82/303/79 26/304/79 25/305/79
f 80/306/80 84/307/80 25/308/80 9/309/80
f 88/310/81 92/311/81 91/312/81 89/313/81
f 89/314/82 91/315/82 93/316/82 85/317/82
f 90/318/83 91/319/83 92/320/83 87/321/83
f 86/322/84 93/323/84 91/324/84 90/325/84
f 92/326/85 94/327/85 95/328/85 87/329/85
f 95/330/86 96/331/86 97/332/86 87/333/86
f 87/334/87 98/335/87 90/336/87
f 97/337/88 98/338/88 87/339/88
f 100/340/89 106/341/89 105/342/89 103/343/89
f 103/344/90 105/345/90 107/346/90 99/347/90
f 104/348/91 105/349/91 106/350/91 102/351/91
f 101/352/92 107/353/92 105/354/92 104/355/92
f 109/356/93 115/357/93 114/358/93 112/359/93
f 112/360/94 114/361/94 116/362/94 108/363/94
f 113/364/95 114/365/95 115/366/95 111/367/95
f 110/368/96 116/369/96 114/370/96 113/371/96
f 118/372/97 124/373/97 123/374/97 121/375/97
f 121/376/98 123/377/98 125/378/98 117/379/98
f 122/380/99 123/381/99 124/382/99 120/383/99
f 119/384/100 125/385/100 123/386/100 122/387/100