# Made in Blockbench 5.0.4
mtllib Rocks.mtl

o cuboid
v 0.042957259654536506 0.5043048469387752 0.48204601938745595
v 0.03291370325318438 0.3441485969387753 0.49401546381118966
v 0.14004497153427364 0.3441485969387753 0.36634138995802756
v 0.14004497153427364 0.5199298469387752 0.36634138995802756
v 0.042957259654536506 0.18399234693877609 0.48204601938745595
v 0.14004497153427364 0.1683673469387752 0.36634138995802756
v 0.24717623981536355 0.1683673469387752 0.23866731610486458
v 0.24717623981536355 0.3441485969387753 0.23866731610486458
v 0.24717623981536355 -0.0074139030612248025 0.23866731610486458
v 0.14004497153427364 -0.0074139030612248025 0.36634138995802756
v 0.24717623981536355 0.5199298469387752 0.23866731610486458
v 0.15008852793562588 0.6800860969387752 0.3543719455342933
v 0.24717623981536355 0.6957110969387752 0.23866731610486458
v 0.3543075080964534 0.5199298469387752 0.1109932422517016
v 0.3543075080964534 0.6957110969387752 0.1109932422517016
v 0.24717623981536355 0.8714923469387752 0.23866731610486458
v 0.3543075080964534 0.8714923469387752 0.1109932422517016
v 0.24717623981536355 1.0472735969387752 0.23866731610486458
v 0.34426395169510116 1.0316485969387752 0.12296268667543553
v 0.15008852793562588 1.2074298469387752 0.3543719455342933
v 0.15008852793562588 1.0628985969387752 0.3543719455342933
v 0.23713268341401136 1.2074298469387752 0.2506367605285986
v 0.1482957766439912 -0.0074139030612248025 -0.3293753865877774
v 0.1482957766439912 0.16836734693877586 -0.3293753865877774
v 0.23162910997732408 0.16836734693877586 -0.18503781929037177
v 0.23162910997732408 -0.0074139030612248025 -0.18503781929037177
v 0.1482957766439912 0.34414859693877525 -0.3293753865877774
v 0.06496244331065781 0.16836734693877586 -0.473712953885184
v 0.07277494331065781 0.32852359693877525 -0.4601813069510522
v 0.23162910997732408 0.34414859693877525 -0.18503781929037177
v 0.23162910997732408 0.5199298469387752 -0.18503781929037177
v 0.1561082766439912 0.5043048469387752 -0.3158437396536456
v 0.3149624433106575 0.5199298469387752 -0.040700251992965175
v 0.3149624433106575 0.34414859693877525 -0.040700251992965175
v 0.3071499433106575 0.6800860969387752 -0.05423189892709718
v 0.23162910997732408 0.6957110969387752 -0.18503781929037177
v 0.23162910997732408 0.8714923469387752 -0.18503781929037177
v 0.1561082766439912 0.7113360969387752 -0.3158437396536456
v 0.1482957766439912 0.8714923469387752 -0.3293753865877774
v 0.23162910997732408 1.0472735969387752 -0.18503781929037177
v 0.1561082766439912 1.0316485969387752 -0.3158437396536456
v 0.3149624433106575 1.0472735969387752 -0.040700251992965175
v 0.3149624433106575 0.8714923469387752 -0.040700251992965175
v 0.3071499433106575 1.2074298469387752 -0.05423189892709718
v 0.23162910997732408 1.2230548469387752 -0.18503781929037177
v 0.22381660997732414 1.3832110969387752 -0.19856946622450344
v 0.1561082766439912 1.2386798469387752 -0.3158437396536456
v 0.1561082766439912 1.3832110969387752 -0.3158437396536456
v 0.06496244331065781 -0.0074139030612248025 -0.473712953885184
v -0.26169777866634125 0.5199298469387752 0.16046231554032922
v -0.26169777866634125 0.3441485969387752 0.16046231554032922
v -0.17214784394187202 0.3441485969387752 0.3010275565091406
v -0.18054315032229107 0.5043048469387752 0.28784956516831456
v -0.34285240701039166 0.6800860969387752 0.033075065912343826
v -0.35124771339081085 0.5199298469387752 0.01989707457151671
v -0.26169777866634125 0.6957110969387752 0.16046231554032922
v -0.35124771339081085 0.3441485969387752 0.01989707457151671
v -0.26169777866634125 0.1683673469387812 0.16046231554032922
v -0.17214784394187202 0.1683673469387812 0.3010275565091406
v -0.08259790921740146 -0.0074139030612249135 0.44159279747795366
v -0.08259790921740146 0.1683673469387812 0.44159279747795366
v -0.17214784394187202 -0.0074139030612249135 0.3010275565091406
v -0.26169777866634125 -0.0074139030612249135 0.16046231554032922
v -0.09099321559782098 0.32852359693877436 0.42841480613712724
v -0.26169777866634125 0.8714923469387752 0.16046231554032922
v -0.18054315032229107 0.7113360969387752 0.28784956516831456
v -0.17214784394187202 0.8714923469387752 0.3010275565091406
v -0.35124771339081085 1.0472735969387752 0.01989707457151671
v -0.35124771339081085 0.8714923469387752 0.01989707457151671
v -0.26169777866634125 1.0472735969387752 0.16046231554032922
v -0.34285240701039166 1.2074298469387752 0.033075065912343826
v -0.26169777866634125 1.2230548469387752 0.16046231554032922
v -0.25330247228592223 1.3832110969387752 0.17364030688115495
v -0.18054315032229107 1.2386798469387752 0.28784956516831456
v -0.18054315032229107 1.3832110969387752 0.28784956516831456
v -0.18054315032229107 1.0316485969387752 0.28784956516831456
v -0.19555728782014883 -0.0074139030612249135 -0.19658628493660313
v -0.19555728782014883 0.16836734693877514 -0.19658628493660313
v -0.1317767157593007 0.16836734693877514 -0.3505662070218165
v -0.1317767157593007 -0.0074139030612249135 -0.3505662070218165
v -0.06799614369845394 0.3441485969387753 -0.5045461291070286
v -0.07397557232915804 0.18399234693878236 -0.4901105114115406
v -0.1317767157593007 0.3441485969387753 -0.3505662070218165
v -0.07397557232915804 0.5043048469387752 -0.4901105114115406
v -0.1317767157593007 0.5199298469387752 -0.3505662070218165
v -0.13775614439000533 0.6800860969387752 -0.33613058932632733
v -0.19555728782014883 0.5199298469387752 -0.19658628493660313
v -0.19555728782014883 0.6957110969387752 -0.19658628493660313
v -0.19555728782014883 0.8714923469387752 -0.19658628493660313
v -0.2593378598809961 0.6957110969387752 -0.04260636285138983
v -0.2593378598809961 0.8714923469387752 -0.04260636285138983
v -0.19555728782014883 1.0472735969387752 -0.19658628493660313
v -0.2533584312502918 1.0316485969387752 -0.057041980546878396
v -0.13775614439000533 1.2074298469387752 -0.33613058932632733
v -0.13775614439000533 1.0628985969387752 -0.33613058932632733
v -0.18957785918944403 1.2074298469387752 -0.21102190263209197
v -0.2593378598809961 0.5199298469387752 -0.04260636285138983
v -0.19555728782014883 0.3441485969387753 -0.19658628493660313
vt 0.5026046875 0.4931640625
vt 0.5026046875 0.51513671875
vt 0.48177109375 0.51513671875
vt 0.48177109375 0.4931640625
vt 0.5026046875 0.625
vt 0.5026046875 0.60302734375
vt 0.5234375 0.60302734375
vt 0.521484375 0.623046875
vt 0.5026046875 0.60302734375
vt 0.5026046875 0.5810546875
vt 0.5234375 0.5810546875
vt 0.5234375 0.60302734375
vt 0.5026046875 0.5810546875
vt 0.5026046875 0.55908203125
vt 0.5234375 0.55908203125
vt 0.5234375 0.5810546875
vt 0.462890625 0.55712890625
vt 0.4609375 0.537109375
vt 0.48177109375 0.537109375
vt 0.48177109375 0.55908203125
vt 0.4609375 0.537109375
vt 0.462890625 0.51708984375
vt 0.48177109375 0.51513671875
vt 0.48177109375 0.537109375
vt 0.0045570312499999995 1
vt 0.0045570312499999995 0.98193359375
vt 0.0234375 0.97998046875
vt 0.021484375 1
vt 0.48372421875 0.5791015625
vt 0.48177109375 0.55908203125
vt 0.5026046875 0.55908203125
vt 0.5026046875 0.5810546875
vt 0.48177109375 0.55908203125
vt 0.48177109375 0.537109375
vt 0.5026046875 0.537109375
vt 0.5026046875 0.55908203125
vt 0.48177109375 0.537109375
vt 0.48177109375 0.51513671875
vt 0.5026046875 0.51513671875
vt 0.5026046875 0.537109375
vt 0.5625 0.857421875
vt 0.5625 0.87939453125
vt 0.54166640625 0.87939453125
vt 0.54166640625 0.857421875
vt 0.54166640625 0.857421875
vt 0.54166640625 0.87939453125
vt 0.52083359375 0.87939453125
vt 0.52083359375 0.857421875
vt 0.517578125 0.841796875
vt 0.515625 0.82177734375
vt 0.53645859375 0.82177734375
vt 0.53645859375 0.84375
vt 0.515625 0.82177734375
vt 0.515625 0.7998046875
vt 0.53645859375 0.7998046875
vt 0.53645859375 0.82177734375
vt 0.501953125 0.943359375
vt 0.5 0.92333984375
vt 0.52083359375 0.92333984375
vt 0.52083359375 0.9453125
vt 0.5 0.92333984375
vt 0.5 0.9013671875
vt 0.52083359375 0.9013671875
vt 0.52083359375 0.92333984375
vt 0.173828125 1
vt 0.171875 0.97998046875
vt 0.1875 0.98193359375
vt 0.1875 1
vt 0.53645859375 0.82177734375
vt 0.53645859375 0.7998046875
vt 0.55729140625 0.7998046875
vt 0.55533828125 0.81982421875
vt 0.53645859375 0.7998046875
vt 0.53645859375 0.77783203125
vt 0.55533828125 0.77978515625
vt 0.55729140625 0.7998046875
vt 0.52083359375 0.92333984375
vt 0.52083359375 0.9013671875
vt 0.54166640625 0.9013671875
vt 0.53971328125 0.92138671875
vt 0.52083359375 0.9013671875
vt 0.52083359375 0.87939453125
vt 0.54166640625 0.87939453125
vt 0.54166640625 0.9013671875
vt 0.54166640625 0.9013671875
vt 0.54166640625 0.87939453125
vt 0.5625 0.87939453125
vt 0.560546875 0.8994140625
vt 0.1328125 0.498046875
vt 0.1328125 0.52001953125
vt 0.1119796875 0.52001953125
vt 0.1119796875 0.498046875
vt 0.1119796875 0.498046875
vt 0.1119796875 0.52001953125
vt 0.09114609374999999 0.52001953125
vt 0.09114609374999999 0.498046875
vt 0.314453125 0.896484375
vt 0.3125 0.87646484375
vt 0.33333359375 0.87646484375
vt 0.33333359375 0.8984375
vt 0.3125 0.87646484375
vt 0.3125 0.8544921875
vt 0.33333359375 0.8544921875
vt 0.33333359375 0.87646484375
vt 0.072265625 0.583984375
vt 0.0703125 0.56396484375
vt 0.09114609375 0.56396484375
vt 0.09114609375 0.5859375
vt 0.0703125 0.56396484375
vt 0.0703125 0.5419921875
vt 0.09114609375 0.5419921875
vt 0.09114609375 0.56396484375
vt 0.095703125 1
vt 0.09375 0.97998046875
vt 0.109375 0.98193359375
vt 0.109375 1
vt 0.33333359375 0.87646484375
vt 0.33333359375 0.8544921875
vt 0.3541671875 0.8544921875
vt 0.3522140625 0.87451171875
vt 0.33333359375 0.8544921875
vt 0.33333359375 0.83251953125
vt 0.3522140625 0.83447265625
vt 0.3541671875 0.8544921875
vt 0.09114609375 0.56396484375
vt 0.09114609375 0.5419921875
vt 0.11197968750000001 0.5419921875
vt 0.11002656250000001 0.56201171875
vt 0.09114609375 0.5419921875
vt 0.09114609375 0.52001953125
vt 0.1119796875 0.52001953125
vt 0.1119796875 0.5419921875
vt 0.1119796875 0.5419921875
vt 0.1119796875 0.52001953125
vt 0.1328125 0.52001953125
vt 0.130859375 0.5400390625
vt 0.50260390625 0.6337890625
vt 0.50260390625 0.65576171875
vt 0.48177109375 0.65576171875
vt 0.48177109375 0.6337890625
vt 0.50260390625 0.765625
vt 0.50260390625 0.74365234375
vt 0.5234375 0.74365234375
vt 0.521484375 0.763671875
vt 0.50260390625 0.74365234375
vt 0.50260390625 0.7216796875
vt 0.5234375 0.7216796875
vt 0.5234375 0.74365234375
vt 0.50260390625 0.7216796875
vt 0.50260390625 0.69970703125
vt 0.5234375 0.69970703125
vt 0.5234375 0.7216796875
vt 0.462890625 0.69775390625
vt 0.4609375 0.677734375
vt 0.48177109375 0.677734375
vt 0.48177109375 0.69970703125
vt 0.4609375 0.677734375
vt 0.462890625 0.65771484375
vt 0.48177109375 0.65576171875
vt 0.48177109375 0.677734375
vt 0.1608078125 0.796875
vt 0.1608078125 0.77880859375
vt 0.1796875 0.77685546875
vt 0.177734375 0.796875
vt 0.48372421875 0.7197265625
vt 0.48177109375 0.69970703125
vt 0.50260390625 0.69970703125
vt 0.50260390625 0.7216796875
vt 0.48177109375 0.69970703125
vt 0.48177109375 0.677734375
vt 0.50260390625 0.677734375
vt 0.50260390625 0.69970703125
vt 0.48177109375 0.677734375
vt 0.48177109375 0.65576171875
vt 0.50260390625 0.65576171875
vt 0.50260390625 0.677734375
vn 0.7660444431189779 0 0.6427876096865396
vn 0.7660444431189781 0 0.6427876096865394
vn 0.7660444431189781 0 0.6427876096865394
vn 0.7660444431189781 0 0.6427876096865394
vn 0.7660444431189776 -9.910771390556347e-16 0.6427876096865399
vn 0.7660444431189783 1.1047520870356817e-15 0.6427876096865389
vn 0.7660444431189777 0 0.64278760968654
vn 0.7660444431189779 6.580102316680806e-16 0.6427876096865395
vn 0.7660444431189779 0 0.6427876096865395
vn 0.766044443118978 0 0.6427876096865395
vn 0.8660254037844387 0 -0.4999999999999999
vn 0.8660254037844386 0 -0.5000000000000001
vn 0.8660254037844388 -4.467970708857332e-16 -0.4999999999999999
vn 0.8660254037844387 0 -0.4999999999999999
vn 0.8660254037844388 -4.467970708857332e-16 -0.4999999999999999
vn 0.8660254037844388 0 -0.4999999999999999
vn 0.8660254037844387 2.8977103922247245e-16 -0.49999999999999983
vn 0.8660254037844386 0 -0.5000000000000001
vn 0.8660254037844387 0 -0.4999999999999999
vn 0.8660254037844386 0 -0.5000000000000001
vn 0.8660254037844386 0 -0.5000000000000001
vn 0.8660254037844387 0 -0.4999999999999999
vn -0.8433914458128839 0 0.5372996083468269
vn -0.8433914458128847 0 0.5372996083468258
vn -0.8433914458128855 -2.307097602391817e-15 0.5372996083468242
vn -0.8433914458128855 0 0.5372996083468242
vn -0.8433914458128855 -2.307097602391817e-15 0.5372996083468242
vn -0.8433914458128855 0 0.5372996083468242
vn -0.8433914458128847 1.349246401379655e-15 0.5372996083468252
vn -0.8433914458128845 0 0.5372996083468258
vn -0.8433914458128847 0 0.5372996083468254
vn -0.8433914458128845 0 0.5372996083468258
vn -0.8433914458128845 0 0.5372996083468258
vn -0.8433914458128839 0 0.5372996083468269
vn -0.9238795325112863 0 -0.38268343236509134
vn -0.9238795325112881 0 -0.3826834323650872
vn -0.9238795325112881 0 -0.3826834323650872
vn -0.9238795325112881 0 -0.3826834323650872
vn -0.923879532511288 5.280329019558764e-17 -0.38268343236508695
vn -0.923879532511288 -5.885974234206794e-17 -0.38268343236508706
vn -0.9238795325112861 0 -0.38268343236509156
vn -0.9238795325112862 3.0057257495949554e-16 -0.3826834323650913
vn -0.9238795325112862 0 -0.3826834323650913
vn -0.9238795325112862 0 -0.3826834323650912
usemtl m_168c59e9-812d-730e-f8b4-8da34ef023e7
f 9/1/1 7/2/1 6/3/1 10/4/1
f 18/5/2 16/6/2 17/7/2 19/8/2
f 16/9/3 13/10/3 15/11/3 17/12/3
f 13/13/4 11/14/4 14/15/4 15/16/4
f 1/17/5 2/18/5 3/19/5 4/20/5
f 2/21/6 5/22/6 6/23/6 3/24/6
f 20/25/7 21/26/7 18/27/7 22/28/7
f 12/29/8 4/30/8 11/31/8 13/32/8
f 4/33/9 3/34/9 8/35/9 11/36/9
f 3/37/10 6/38/10 7/39/10 8/40/10
f 49/41/11 28/42/11 24/43/11 23/44/11
f 23/45/12 24/46/12 25/47/12 26/48/12
f 44/49/13 42/50/13 40/51/13 45/52/13
f 42/53/14 43/54/14 37/55/14 40/56/14
f 35/57/15 33/58/15 31/59/15 36/60/15
f 33/61/16 34/62/16 30/63/16 31/64/16
f 46/65/17 45/66/17 47/67/17 48/68/17
f 40/69/18 37/70/18 39/71/18 41/72/18
f 37/73/19 36/74/19 38/75/19 39/76/19
f 31/77/20 30/78/20 27/79/20 32/80/20
f 30/81/21 25/82/21 24/83/21 27/84/21
f 27/85/22 24/86/22 28/87/22 29/88/22
f 60/89/23 61/90/23 59/91/23 62/92/23
f 62/93/24 59/94/24 58/95/24 63/96/24
f 71/97/25 68/98/25 70/99/25 72/100/25
f 68/101/26 69/102/26 65/103/26 70/104/26
f 54/105/27 55/106/27 50/107/27 56/108/27
f 55/109/28 57/110/28 51/111/28 50/112/28
f 73/113/29 72/114/29 74/115/29 75/116/29
f 70/117/30 65/118/30 67/119/30 76/120/30
f 65/121/31 56/122/31 66/123/31 67/124/31
f 50/125/32 51/126/32 52/127/32 53/128/32
f 51/129/33 58/130/33 59/131/33 52/132/33
f 52/133/34 59/134/34 61/135/34 64/136/34
f 77/137/35 78/138/35 79/139/35 80/140/35
f 92/141/36 89/142/36 91/143/36 93/144/36
f 89/145/37 88/146/37 90/147/37 91/148/37
f 88/149/38 87/150/38 97/151/38 90/152/38
f 84/153/39 81/154/39 83/155/39 85/156/39
f 81/157/40 82/158/40 79/159/40 83/160/40
f 94/161/41 95/162/41 92/163/41 96/164/41
f 86/165/42 85/166/42 87/167/42 88/168/42
f 85/169/43 83/170/43 98/171/43 87/172/43
f 83/173/44 79/174/44 78/175/44 98/176/44